<svg width="804" height="350" viewBox="0 0 804 350" fill="none" xmlns="http://www.w3.org/2000/svg">
<rect width="804" height="349.297" rx="28" fill="#1A1A1A"/>
<path d="M302.26 92.14C302.02 92.14 301.827 92.08 301.68 91.96C301.533 91.8267 301.413 91.6333 301.32 91.38L296.9 78.76C296.807 78.48 296.827 78.2467 296.96 78.06C297.107 77.86 297.333 77.76 297.64 77.76C297.867 77.76 298.047 77.82 298.18 77.94C298.313 78.0467 298.427 78.22 298.52 78.46L302.66 90.6H301.96L306.18 78.52C306.273 78.2667 306.387 78.08 306.52 77.96C306.653 77.8267 306.833 77.76 307.06 77.76C307.273 77.76 307.44 77.8267 307.56 77.96C307.693 78.08 307.807 78.2667 307.9 78.52L312.06 90.6H311.44L315.62 78.46C315.687 78.2333 315.787 78.06 315.92 77.94C316.067 77.82 316.253 77.76 316.48 77.76C316.76 77.76 316.967 77.8533 317.1 78.04C317.233 78.2267 317.247 78.4667 317.14 78.76L312.7 91.38C312.607 91.6333 312.487 91.8267 312.34 91.96C312.207 92.08 312.013 92.14 311.76 92.14C311.52 92.14 311.327 92.08 311.18 91.96C311.047 91.8267 310.927 91.6333 310.82 91.38L306.8 79.8H307.24L303.18 91.38C303.087 91.6333 302.973 91.8267 302.84 91.96C302.707 92.08 302.513 92.14 302.26 92.14ZM322.74 92.18C321.713 92.18 320.827 91.98 320.08 91.58C319.347 91.1667 318.773 90.5867 318.36 89.84C317.96 89.0933 317.76 88.2 317.76 87.16C317.76 86.1467 317.96 85.2667 318.36 84.52C318.76 83.76 319.307 83.1667 320 82.74C320.707 82.3133 321.52 82.1 322.44 82.1C323.093 82.1 323.68 82.2133 324.2 82.44C324.72 82.6533 325.16 82.9667 325.52 83.38C325.893 83.7933 326.173 84.2933 326.36 84.88C326.56 85.4667 326.66 86.1267 326.66 86.86C326.66 87.0733 326.6 87.2333 326.48 87.34C326.36 87.4333 326.187 87.48 325.96 87.48H319V86.42H325.58L325.26 86.68C325.26 85.96 325.153 85.3533 324.94 84.86C324.727 84.3533 324.413 83.9667 324 83.7C323.6 83.4333 323.093 83.3 322.48 83.3C321.8 83.3 321.22 83.46 320.74 83.78C320.273 84.0867 319.92 84.52 319.68 85.08C319.44 85.6267 319.32 86.2667 319.32 87V87.12C319.32 88.3467 319.613 89.28 320.2 89.92C320.8 90.56 321.647 90.88 322.74 90.88C323.193 90.88 323.64 90.82 324.08 90.7C324.533 90.58 324.973 90.38 325.4 90.1C325.587 89.98 325.753 89.9267 325.9 89.94C326.06 89.94 326.187 89.9867 326.28 90.08C326.373 90.16 326.433 90.2667 326.46 90.4C326.5 90.52 326.487 90.6533 326.42 90.8C326.367 90.9467 326.253 91.0733 326.08 91.18C325.64 91.5 325.12 91.7467 324.52 91.92C323.92 92.0933 323.327 92.18 322.74 92.18ZM331.964 92.18C331.004 92.18 330.271 91.8867 329.764 91.3C329.258 90.7133 329.004 89.8733 329.004 88.78V78.58C329.004 78.3133 329.071 78.1133 329.204 77.98C329.338 77.8333 329.538 77.76 329.804 77.76C330.058 77.76 330.258 77.8333 330.404 77.98C330.551 78.1133 330.624 78.3133 330.624 78.58V88.66C330.624 89.38 330.764 89.92 331.044 90.28C331.338 90.6267 331.764 90.8 332.324 90.8C332.444 90.8 332.551 90.7933 332.644 90.78C332.738 90.7667 332.831 90.76 332.924 90.76C333.071 90.7467 333.171 90.78 333.224 90.86C333.291 90.94 333.324 91.1 333.324 91.34C333.324 91.58 333.271 91.76 333.164 91.88C333.058 92 332.884 92.08 332.644 92.12C332.538 92.1333 332.424 92.1467 332.304 92.16C332.184 92.1733 332.071 92.18 331.964 92.18ZM338.945 92.18C337.971 92.18 337.131 91.9667 336.425 91.54C335.718 91.1133 335.171 90.52 334.785 89.76C334.411 88.9867 334.225 88.0933 334.225 87.08C334.225 86.3067 334.331 85.6133 334.545 85C334.758 84.3867 335.071 83.8667 335.485 83.44C335.898 83 336.391 82.6667 336.965 82.44C337.551 82.2133 338.211 82.1 338.945 82.1C339.425 82.1 339.925 82.1733 340.445 82.32C340.965 82.4667 341.438 82.72 341.865 83.08C341.998 83.1733 342.085 83.2867 342.125 83.42C342.165 83.5533 342.165 83.6867 342.125 83.82C342.085 83.94 342.018 84.0467 341.925 84.14C341.831 84.22 341.711 84.2667 341.565 84.28C341.431 84.2933 341.291 84.2467 341.145 84.14C340.798 83.8733 340.445 83.6867 340.085 83.58C339.725 83.4733 339.378 83.42 339.045 83.42C338.525 83.42 338.071 83.5067 337.685 83.68C337.298 83.84 336.971 84.0733 336.705 84.38C336.438 84.6867 336.231 85.0667 336.085 85.52C335.951 85.9733 335.885 86.5 335.885 87.1C335.885 88.26 336.158 89.18 336.705 89.86C337.251 90.5267 338.031 90.86 339.045 90.86C339.378 90.86 339.718 90.8067 340.065 90.7C340.425 90.5933 340.785 90.4067 341.145 90.14C341.291 90.0333 341.431 89.9867 341.565 90C341.698 90.0133 341.811 90.0667 341.905 90.16C341.998 90.24 342.058 90.3467 342.085 90.48C342.125 90.6133 342.125 90.7467 342.085 90.88C342.045 91 341.958 91.1067 341.825 91.2C341.398 91.5467 340.931 91.8 340.425 91.96C339.918 92.1067 339.425 92.18 338.945 92.18ZM347.927 92.18C346.981 92.18 346.161 91.9733 345.467 91.56C344.774 91.1467 344.234 90.5667 343.847 89.82C343.474 89.06 343.287 88.1667 343.287 87.14C343.287 86.3667 343.394 85.6733 343.607 85.06C343.821 84.4333 344.134 83.9 344.547 83.46C344.961 83.02 345.447 82.6867 346.007 82.46C346.581 82.22 347.221 82.1 347.927 82.1C348.874 82.1 349.694 82.3067 350.387 82.72C351.081 83.1333 351.614 83.72 351.987 84.48C352.374 85.2267 352.567 86.1133 352.567 87.14C352.567 87.9133 352.461 88.6067 352.247 89.22C352.034 89.8333 351.721 90.3667 351.307 90.82C350.894 91.26 350.401 91.6 349.827 91.84C349.267 92.0667 348.634 92.18 347.927 92.18ZM347.927 90.88C348.527 90.88 349.054 90.7333 349.507 90.44C349.961 90.1467 350.307 89.72 350.547 89.16C350.801 88.6 350.927 87.9267 350.927 87.14C350.927 85.9267 350.654 85 350.107 84.36C349.574 83.72 348.847 83.4 347.927 83.4C347.314 83.4 346.781 83.5467 346.327 83.84C345.887 84.12 345.541 84.54 345.287 85.1C345.047 85.6467 344.927 86.3267 344.927 87.14C344.927 88.34 345.201 89.2667 345.747 89.92C346.294 90.56 347.021 90.88 347.927 90.88ZM355.84 92.14C355.574 92.14 355.374 92.0667 355.24 91.92C355.107 91.7733 355.04 91.5667 355.04 91.3V82.96C355.04 82.6933 355.107 82.4933 355.24 82.36C355.374 82.2133 355.567 82.14 355.82 82.14C356.074 82.14 356.267 82.2133 356.4 82.36C356.547 82.4933 356.62 82.6933 356.62 82.96V84.72L356.4 84.44C356.654 83.6933 357.06 83.12 357.62 82.72C358.194 82.3067 358.874 82.1 359.66 82.1C360.487 82.1 361.154 82.3 361.66 82.7C362.18 83.0867 362.527 83.6933 362.7 84.52H362.4C362.64 83.7733 363.067 83.1867 363.68 82.76C364.307 82.32 365.034 82.1 365.86 82.1C366.594 82.1 367.194 82.24 367.66 82.52C368.14 82.8 368.5 83.2267 368.74 83.8C368.98 84.36 369.1 85.0733 369.1 85.94V91.3C369.1 91.5667 369.027 91.7733 368.88 91.92C368.747 92.0667 368.547 92.14 368.28 92.14C368.027 92.14 367.827 92.0667 367.68 91.92C367.547 91.7733 367.48 91.5667 367.48 91.3V86.02C367.48 85.1267 367.327 84.4733 367.02 84.06C366.714 83.6333 366.194 83.42 365.46 83.42C364.66 83.42 364.027 83.7 363.56 84.26C363.107 84.8067 362.88 85.5533 362.88 86.5V91.3C362.88 91.5667 362.807 91.7733 362.66 91.92C362.527 92.0667 362.327 92.14 362.06 92.14C361.807 92.14 361.607 92.0667 361.46 91.92C361.327 91.7733 361.26 91.5667 361.26 91.3V86.02C361.26 85.1267 361.1 84.4733 360.78 84.06C360.474 83.6333 359.96 83.42 359.24 83.42C358.44 83.42 357.807 83.7 357.34 84.26C356.887 84.8067 356.66 85.5533 356.66 86.5V91.3C356.66 91.86 356.387 92.14 355.84 92.14ZM376.509 92.18C375.483 92.18 374.596 91.98 373.849 91.58C373.116 91.1667 372.543 90.5867 372.129 89.84C371.729 89.0933 371.529 88.2 371.529 87.16C371.529 86.1467 371.729 85.2667 372.129 84.52C372.529 83.76 373.076 83.1667 373.769 82.74C374.476 82.3133 375.289 82.1 376.209 82.1C376.863 82.1 377.449 82.2133 377.969 82.44C378.489 82.6533 378.929 82.9667 379.289 83.38C379.663 83.7933 379.943 84.2933 380.129 84.88C380.329 85.4667 380.429 86.1267 380.429 86.86C380.429 87.0733 380.369 87.2333 380.249 87.34C380.129 87.4333 379.956 87.48 379.729 87.48H372.769V86.42H379.349L379.029 86.68C379.029 85.96 378.923 85.3533 378.709 84.86C378.496 84.3533 378.183 83.9667 377.769 83.7C377.369 83.4333 376.863 83.3 376.249 83.3C375.569 83.3 374.989 83.46 374.509 83.78C374.043 84.0867 373.689 84.52 373.449 85.08C373.209 85.6267 373.089 86.2667 373.089 87V87.12C373.089 88.3467 373.383 89.28 373.969 89.92C374.569 90.56 375.416 90.88 376.509 90.88C376.963 90.88 377.409 90.82 377.849 90.7C378.303 90.58 378.743 90.38 379.169 90.1C379.356 89.98 379.523 89.9267 379.669 89.94C379.829 89.94 379.956 89.9867 380.049 90.08C380.143 90.16 380.203 90.2667 380.229 90.4C380.269 90.52 380.256 90.6533 380.189 90.8C380.136 90.9467 380.023 91.0733 379.849 91.18C379.409 91.5 378.889 91.7467 378.289 91.92C377.689 92.0933 377.096 92.18 376.509 92.18ZM391.83 92.18C391.07 92.18 390.43 92.0467 389.91 91.78C389.403 91.5 389.023 91.1 388.77 90.58C388.517 90.0467 388.39 89.4 388.39 88.64V83.54H387.05C386.823 83.54 386.65 83.4867 386.53 83.38C386.41 83.26 386.35 83.1 386.35 82.9C386.35 82.7 386.41 82.5467 386.53 82.44C386.65 82.3333 386.823 82.28 387.05 82.28H388.39V79.98C388.39 79.7133 388.463 79.5133 388.61 79.38C388.757 79.2333 388.957 79.16 389.21 79.16C389.463 79.16 389.657 79.2333 389.79 79.38C389.937 79.5133 390.01 79.7133 390.01 79.98V82.28H392.53C392.757 82.28 392.93 82.3333 393.05 82.44C393.17 82.5467 393.23 82.7 393.23 82.9C393.23 83.1 393.17 83.26 393.05 83.38C392.93 83.4867 392.757 83.54 392.53 83.54H390.01V88.48C390.01 89.24 390.17 89.82 390.49 90.22C390.81 90.6067 391.33 90.8 392.05 90.8C392.303 90.8 392.517 90.7733 392.69 90.72C392.877 90.6667 393.03 90.64 393.15 90.64C393.27 90.6267 393.37 90.6667 393.45 90.76C393.53 90.8533 393.57 91.0133 393.57 91.24C393.57 91.4 393.537 91.5467 393.47 91.68C393.417 91.8133 393.317 91.9067 393.17 91.96C393.01 92.0133 392.797 92.06 392.53 92.1C392.277 92.1533 392.043 92.18 391.83 92.18ZM398.865 92.18C397.918 92.18 397.098 91.9733 396.405 91.56C395.711 91.1467 395.171 90.5667 394.785 89.82C394.411 89.06 394.225 88.1667 394.225 87.14C394.225 86.3667 394.331 85.6733 394.545 85.06C394.758 84.4333 395.071 83.9 395.485 83.46C395.898 83.02 396.385 82.6867 396.945 82.46C397.518 82.22 398.158 82.1 398.865 82.1C399.811 82.1 400.631 82.3067 401.325 82.72C402.018 83.1333 402.551 83.72 402.925 84.48C403.311 85.2267 403.505 86.1133 403.505 87.14C403.505 87.9133 403.398 88.6067 403.185 89.22C402.971 89.8333 402.658 90.3667 402.245 90.82C401.831 91.26 401.338 91.6 400.765 91.84C400.205 92.0667 399.571 92.18 398.865 92.18ZM398.865 90.88C399.465 90.88 399.991 90.7333 400.445 90.44C400.898 90.1467 401.245 89.72 401.485 89.16C401.738 88.6 401.865 87.9267 401.865 87.14C401.865 85.9267 401.591 85 401.045 84.36C400.511 83.72 399.785 83.4 398.865 83.4C398.251 83.4 397.718 83.5467 397.265 83.84C396.825 84.12 396.478 84.54 396.225 85.1C395.985 85.6467 395.865 86.3267 395.865 87.14C395.865 88.34 396.138 89.2667 396.685 89.92C397.231 90.56 397.958 90.88 398.865 90.88ZM414.994 92.18C414.234 92.18 413.594 92.0467 413.074 91.78C412.568 91.5 412.188 91.1 411.934 90.58C411.681 90.0467 411.554 89.4 411.554 88.64V83.54H410.214C409.988 83.54 409.814 83.4867 409.694 83.38C409.574 83.26 409.514 83.1 409.514 82.9C409.514 82.7 409.574 82.5467 409.694 82.44C409.814 82.3333 409.988 82.28 410.214 82.28H411.554V79.98C411.554 79.7133 411.628 79.5133 411.774 79.38C411.921 79.2333 412.121 79.16 412.374 79.16C412.628 79.16 412.821 79.2333 412.954 79.38C413.101 79.5133 413.174 79.7133 413.174 79.98V82.28H415.694C415.921 82.28 416.094 82.3333 416.214 82.44C416.334 82.5467 416.394 82.7 416.394 82.9C416.394 83.1 416.334 83.26 416.214 83.38C416.094 83.4867 415.921 83.54 415.694 83.54H413.174V88.48C413.174 89.24 413.334 89.82 413.654 90.22C413.974 90.6067 414.494 90.8 415.214 90.8C415.468 90.8 415.681 90.7733 415.854 90.72C416.041 90.6667 416.194 90.64 416.314 90.64C416.434 90.6267 416.534 90.6667 416.614 90.76C416.694 90.8533 416.734 91.0133 416.734 91.24C416.734 91.4 416.701 91.5467 416.634 91.68C416.581 91.8133 416.481 91.9067 416.334 91.96C416.174 92.0133 415.961 92.06 415.694 92.1C415.441 92.1533 415.208 92.18 414.994 92.18ZM419.004 92.14C418.737 92.14 418.537 92.0667 418.404 91.92C418.27 91.7733 418.204 91.5667 418.204 91.3V78.58C418.204 78.3133 418.27 78.1133 418.404 77.98C418.537 77.8333 418.737 77.76 419.004 77.76C419.257 77.76 419.457 77.8333 419.604 77.98C419.75 78.1133 419.824 78.3133 419.824 78.58V84.44H419.564C419.844 83.6667 420.297 83.0867 420.924 82.7C421.564 82.3 422.297 82.1 423.124 82.1C423.897 82.1 424.537 82.24 425.044 82.52C425.564 82.8 425.95 83.2267 426.204 83.8C426.457 84.36 426.584 85.0733 426.584 85.94V91.3C426.584 91.5667 426.51 91.7733 426.364 91.92C426.23 92.0667 426.037 92.14 425.784 92.14C425.517 92.14 425.31 92.0667 425.164 91.92C425.03 91.7733 424.964 91.5667 424.964 91.3V86.04C424.964 85.1333 424.784 84.4733 424.424 84.06C424.077 83.6333 423.517 83.42 422.744 83.42C421.85 83.42 421.137 83.7 420.604 84.26C420.084 84.8067 419.824 85.54 419.824 86.46V91.3C419.824 91.86 419.55 92.14 419.004 92.14ZM433.951 92.18C432.924 92.18 432.037 91.98 431.291 91.58C430.557 91.1667 429.984 90.5867 429.571 89.84C429.171 89.0933 428.971 88.2 428.971 87.16C428.971 86.1467 429.171 85.2667 429.571 84.52C429.971 83.76 430.517 83.1667 431.211 82.74C431.917 82.3133 432.731 82.1 433.651 82.1C434.304 82.1 434.891 82.2133 435.411 82.44C435.931 82.6533 436.371 82.9667 436.731 83.38C437.104 83.7933 437.384 84.2933 437.571 84.88C437.771 85.4667 437.871 86.1267 437.871 86.86C437.871 87.0733 437.811 87.2333 437.691 87.34C437.571 87.4333 437.397 87.48 437.171 87.48H430.211V86.42H436.791L436.471 86.68C436.471 85.96 436.364 85.3533 436.151 84.86C435.937 84.3533 435.624 83.9667 435.211 83.7C434.811 83.4333 434.304 83.3 433.691 83.3C433.011 83.3 432.431 83.46 431.951 83.78C431.484 84.0867 431.131 84.52 430.891 85.08C430.651 85.6267 430.531 86.2667 430.531 87V87.12C430.531 88.3467 430.824 89.28 431.411 89.92C432.011 90.56 432.857 90.88 433.951 90.88C434.404 90.88 434.851 90.82 435.291 90.7C435.744 90.58 436.184 90.38 436.611 90.1C436.797 89.98 436.964 89.9267 437.111 89.94C437.271 89.94 437.397 89.9867 437.491 90.08C437.584 90.16 437.644 90.2667 437.671 90.4C437.711 90.52 437.697 90.6533 437.631 90.8C437.577 90.9467 437.464 91.0733 437.291 91.18C436.851 91.5 436.331 91.7467 435.731 91.92C435.131 92.0933 434.537 92.18 433.951 92.18ZM441.315 92.14C441.035 92.14 440.815 92.0667 440.655 91.92C440.509 91.76 440.435 91.5333 440.435 91.24V78.8C440.435 78.5067 440.509 78.2867 440.655 78.14C440.815 77.98 441.042 77.9 441.335 77.9H448.595C448.822 77.9 448.995 77.96 449.115 78.08C449.235 78.2 449.295 78.3667 449.295 78.58C449.295 78.8067 449.235 78.98 449.115 79.1C448.995 79.22 448.822 79.28 448.595 79.28H442.075V84.2H448.175C448.402 84.2 448.575 84.26 448.695 84.38C448.829 84.5 448.895 84.6667 448.895 84.88C448.895 85.1067 448.829 85.28 448.695 85.4C448.575 85.52 448.402 85.58 448.175 85.58H442.075V91.24C442.075 91.84 441.822 92.14 441.315 92.14ZM452.343 92.1C452.077 92.1 451.877 92.0267 451.743 91.88C451.61 91.72 451.543 91.5 451.543 91.22V83.04C451.543 82.76 451.61 82.5467 451.743 82.4C451.877 82.2533 452.077 82.18 452.343 82.18C452.597 82.18 452.797 82.2533 452.943 82.4C453.09 82.5467 453.163 82.76 453.163 83.04V91.22C453.163 91.5 453.09 91.72 452.943 91.88C452.81 92.0267 452.61 92.1 452.343 92.1ZM452.343 79.94C452.01 79.94 451.75 79.8533 451.563 79.68C451.377 79.4933 451.283 79.2467 451.283 78.94C451.283 78.62 451.377 78.38 451.563 78.22C451.75 78.0467 452.01 77.96 452.343 77.96C452.69 77.96 452.95 78.0467 453.123 78.22C453.31 78.38 453.403 78.62 453.403 78.94C453.403 79.2467 453.31 79.4933 453.123 79.68C452.95 79.8533 452.69 79.94 452.343 79.94ZM460.492 95.78C459.785 95.78 459.092 95.6933 458.412 95.52C457.745 95.36 457.139 95.1 456.592 94.74C456.432 94.6467 456.325 94.5333 456.272 94.4C456.232 94.2667 456.225 94.1333 456.252 94C456.279 93.88 456.339 93.7667 456.432 93.66C456.525 93.5667 456.632 93.5067 456.752 93.48C456.885 93.4533 457.019 93.4733 457.152 93.54C457.739 93.9 458.299 94.1467 458.832 94.28C459.365 94.4133 459.892 94.48 460.412 94.48C461.359 94.48 462.072 94.2267 462.552 93.72C463.045 93.2133 463.292 92.48 463.292 91.52V89.26H463.492C463.292 90.0333 462.865 90.6467 462.212 91.1C461.572 91.5533 460.819 91.78 459.952 91.78C459.059 91.78 458.285 91.58 457.632 91.18C456.979 90.7667 456.472 90.1933 456.112 89.46C455.765 88.7267 455.592 87.88 455.592 86.92C455.592 86.2 455.692 85.5467 455.892 84.96C456.092 84.36 456.379 83.8533 456.752 83.44C457.139 83.0133 457.599 82.6867 458.132 82.46C458.679 82.22 459.285 82.1 459.952 82.1C460.832 82.1 461.592 82.3267 462.232 82.78C462.872 83.22 463.285 83.82 463.472 84.58L463.272 84.82V82.96C463.272 82.6933 463.339 82.4933 463.472 82.36C463.619 82.2133 463.819 82.14 464.072 82.14C464.339 82.14 464.539 82.2133 464.672 82.36C464.805 82.4933 464.872 82.6933 464.872 82.96V91.3C464.872 92.78 464.499 93.8933 463.752 94.64C463.019 95.4 461.932 95.78 460.492 95.78ZM460.252 90.46C460.879 90.46 461.419 90.32 461.872 90.04C462.325 89.7467 462.672 89.3333 462.912 88.8C463.165 88.2667 463.292 87.64 463.292 86.92C463.292 85.84 463.019 84.9867 462.472 84.36C461.925 83.72 461.185 83.4 460.252 83.4C459.639 83.4 459.105 83.5467 458.652 83.84C458.199 84.12 457.845 84.5267 457.592 85.06C457.352 85.58 457.232 86.2 457.232 86.92C457.232 88 457.505 88.86 458.052 89.5C458.599 90.14 459.332 90.46 460.252 90.46ZM468.951 92.14C468.684 92.14 468.477 92.0667 468.331 91.92C468.197 91.76 468.131 91.5467 468.131 91.28V78.74C468.131 78.46 468.204 78.2533 468.351 78.12C468.497 77.9733 468.704 77.9 468.971 77.9H473.711C475.217 77.9 476.377 78.2733 477.191 79.02C478.004 79.7533 478.411 80.7933 478.411 82.14C478.411 83.4733 478.004 84.5133 477.191 85.26C476.377 86.0067 475.217 86.38 473.711 86.38H469.771V91.28C469.771 91.5467 469.704 91.76 469.571 91.92C469.437 92.0667 469.231 92.14 468.951 92.14ZM469.771 85H473.511C474.591 85 475.404 84.76 475.951 84.28C476.511 83.7867 476.791 83.0733 476.791 82.14C476.791 81.1933 476.511 80.48 475.951 80C475.404 79.5067 474.591 79.26 473.511 79.26H469.771V85ZM483.527 92.18C482.567 92.18 481.834 91.8867 481.327 91.3C480.82 90.7133 480.567 89.8733 480.567 88.78V78.58C480.567 78.3133 480.634 78.1133 480.767 77.98C480.9 77.8333 481.1 77.76 481.367 77.76C481.62 77.76 481.82 77.8333 481.967 77.98C482.114 78.1133 482.187 78.3133 482.187 78.58V88.66C482.187 89.38 482.327 89.92 482.607 90.28C482.9 90.6267 483.327 90.8 483.887 90.8C484.007 90.8 484.114 90.7933 484.207 90.78C484.3 90.7667 484.394 90.76 484.487 90.76C484.634 90.7467 484.734 90.78 484.787 90.86C484.854 90.94 484.887 91.1 484.887 91.34C484.887 91.58 484.834 91.76 484.727 91.88C484.62 92 484.447 92.08 484.207 92.12C484.1 92.1333 483.987 92.1467 483.867 92.16C483.747 92.1733 483.634 92.18 483.527 92.18ZM489.925 92.18C489.138 92.18 488.485 92.04 487.965 91.76C487.458 91.4667 487.072 91.0333 486.805 90.46C486.552 89.8867 486.425 89.1733 486.425 88.32V82.96C486.425 82.68 486.492 82.4733 486.625 82.34C486.772 82.2067 486.972 82.14 487.225 82.14C487.492 82.14 487.692 82.2067 487.825 82.34C487.972 82.4733 488.045 82.68 488.045 82.96V88.3C488.045 89.1533 488.218 89.7933 488.565 90.22C488.925 90.6333 489.485 90.84 490.245 90.84C491.072 90.84 491.745 90.56 492.265 90C492.785 89.44 493.045 88.7067 493.045 87.8V82.96C493.045 82.68 493.112 82.4733 493.245 82.34C493.392 82.2067 493.598 82.14 493.865 82.14C494.118 82.14 494.312 82.2067 494.445 82.34C494.592 82.4733 494.665 82.68 494.665 82.96V91.3C494.665 91.86 494.405 92.14 493.885 92.14C493.632 92.14 493.432 92.0667 493.285 91.92C493.152 91.7733 493.085 91.5667 493.085 91.3V89.48L493.345 89.76C493.078 90.5467 492.638 91.1467 492.025 91.56C491.425 91.9733 490.725 92.18 489.925 92.18ZM501.996 95.78C501.289 95.78 500.596 95.6933 499.916 95.52C499.249 95.36 498.642 95.1 498.096 94.74C497.936 94.6467 497.829 94.5333 497.776 94.4C497.736 94.2667 497.729 94.1333 497.756 94C497.782 93.88 497.842 93.7667 497.936 93.66C498.029 93.5667 498.136 93.5067 498.256 93.48C498.389 93.4533 498.522 93.4733 498.656 93.54C499.242 93.9 499.802 94.1467 500.336 94.28C500.869 94.4133 501.396 94.48 501.916 94.48C502.862 94.48 503.576 94.2267 504.056 93.72C504.549 93.2133 504.796 92.48 504.796 91.52V89.26H504.996C504.796 90.0333 504.369 90.6467 503.716 91.1C503.076 91.5533 502.322 91.78 501.456 91.78C500.562 91.78 499.789 91.58 499.136 91.18C498.482 90.7667 497.976 90.1933 497.616 89.46C497.269 88.7267 497.096 87.88 497.096 86.92C497.096 86.2 497.196 85.5467 497.396 84.96C497.596 84.36 497.882 83.8533 498.256 83.44C498.642 83.0133 499.102 82.6867 499.636 82.46C500.182 82.22 500.789 82.1 501.456 82.1C502.336 82.1 503.096 82.3267 503.736 82.78C504.376 83.22 504.789 83.82 504.976 84.58L504.776 84.82V82.96C504.776 82.6933 504.842 82.4933 504.976 82.36C505.122 82.2133 505.322 82.14 505.576 82.14C505.842 82.14 506.042 82.2133 506.176 82.36C506.309 82.4933 506.376 82.6933 506.376 82.96V91.3C506.376 92.78 506.002 93.8933 505.256 94.64C504.522 95.4 503.436 95.78 501.996 95.78ZM501.756 90.46C502.382 90.46 502.922 90.32 503.376 90.04C503.829 89.7467 504.176 89.3333 504.416 88.8C504.669 88.2667 504.796 87.64 504.796 86.92C504.796 85.84 504.522 84.9867 503.976 84.36C503.429 83.72 502.689 83.4 501.756 83.4C501.142 83.4 500.609 83.5467 500.156 83.84C499.702 84.12 499.349 84.5267 499.096 85.06C498.856 85.58 498.736 86.2 498.736 86.92C498.736 88 499.009 88.86 499.556 89.5C500.102 90.14 500.836 90.46 501.756 90.46Z" fill="white"/>
<g opacity="0.2">
<rect x="510.566" y="148.878" width="35.2589" height="35.2589" rx="2.18187" transform="rotate(-26.9878 510.566 148.878)" stroke="#DFD0FF" stroke-width="2.79279" stroke-linecap="round" stroke-linejoin="round"/>
<path d="M520.671 158.336C522.312 161.558 525.172 156.597 525.68 155.092C526.016 154.098 526.488 155.58 527.09 155.963C528.434 156.816 529.611 154.881 530.266 154.02C530.989 153.069 532.02 153.834 533.048 153.683C533.865 153.562 537.433 152.762 537.313 151.439C537.312 151.431 537.569 151.45 537.637 151.437C538.683 151.241 539.779 150.405 540.633 149.82C542.193 148.751 542.031 147.554 542.568 145.901" stroke="#DFD0FF" stroke-width="1.63344" stroke-linecap="round"/>
<path d="M528.022 164.491C528.437 164.341 528.834 164.282 529.273 164.027C529.781 163.732 530.278 163.367 530.665 162.921C530.868 162.687 531.103 162.151 531.425 162.055C531.652 161.987 532.399 162.49 532.861 162.393C534.159 162.12 535.057 160.887 535.903 159.968C536.334 159.5 536.506 159.509 537.059 159.339C538.406 158.924 539.316 158.166 540.334 157.212C540.996 156.594 541.345 155.749 541.995 155.134C543.225 153.973 545.195 153.344 546.635 152.446" stroke="#DFD0FF" stroke-width="1.63344" stroke-linecap="round"/>
<path d="M533.386 168.907C534.157 169.109 535.196 167.867 535.643 167.381C536.165 166.814 536.624 166.156 537.184 165.628C537.533 165.3 538.153 165.566 538.584 165.517C541.734 165.153 544.249 162.459 546.988 161.063" stroke="#DFD0FF" stroke-width="1.63344" stroke-linecap="round"/>
<circle cx="528.711" cy="145.368" r="2.05095" transform="rotate(-26.9878 528.711 145.368)" fill="#E3DC20"/>
<circle cx="528.038" cy="146.642" r="1.22184" transform="rotate(-26.9878 528.038 146.642)" fill="#FCF42F"/>
</g>
<g opacity="0.2">
<rect x="578.17" y="138.959" width="35.2589" height="35.2589" rx="2.18187" stroke="#DFD0FF" stroke-width="2.79279" stroke-linecap="round" stroke-linejoin="round"/>
<path d="M582.883 151.971C582.883 155.588 587.682 152.464 588.818 151.354C589.568 150.62 589.317 152.155 589.68 152.77C590.49 154.14 592.417 152.95 593.391 152.479C594.467 151.96 595.039 153.11 596.023 153.441C596.806 153.705 600.348 154.611 600.842 153.378C600.845 153.37 601.065 153.503 601.132 153.523C602.152 153.823 603.509 153.575 604.535 153.441C606.41 153.197 606.809 152.057 608.038 150.828" stroke="#DFD0FF" stroke-width="1.63344" stroke-linecap="round"/>
<path d="M586.641 160.792C587.079 160.847 587.459 160.974 587.966 160.946C588.552 160.914 589.161 160.814 589.708 160.592C589.995 160.476 590.448 160.106 590.779 160.166C591.011 160.208 591.449 160.996 591.904 161.119C593.185 161.464 594.545 160.773 595.715 160.338C596.312 160.116 596.462 160.203 597.031 160.302C598.421 160.543 599.575 160.281 600.915 159.893C601.785 159.642 602.479 159.048 603.338 158.795C604.961 158.318 607.002 158.652 608.692 158.505" stroke="#DFD0FF" stroke-width="1.63344" stroke-linecap="round"/>
<path d="M589.418 167.162C590.014 167.692 591.503 167.057 592.122 166.826C592.844 166.558 593.552 166.18 594.291 165.964C594.751 165.83 595.182 166.348 595.589 166.5C598.561 167.606 602.024 166.345 605.099 166.345" stroke="#DFD0FF" stroke-width="1.63344" stroke-linecap="round"/>
<circle cx="595.93" cy="144.064" r="2.05095" fill="#E3DC20"/>
<circle cx="594.753" cy="144.893" r="1.22184" fill="#FCF42F"/>
</g>
<g opacity="0.2">
<rect x="592.107" y="185.984" width="35.2589" height="35.2589" rx="2.18187" transform="rotate(29.1159 592.107 185.984)" stroke="#DFD0FF" stroke-width="2.79279" stroke-linecap="round" stroke-linejoin="round"/>
<path d="M589.893 199.646C588.133 202.805 593.846 202.412 595.378 201.995C596.391 201.719 595.424 202.937 595.442 203.651C595.483 205.242 597.746 205.14 598.826 205.203C600.018 205.273 599.959 206.556 600.657 207.324C601.213 207.935 603.867 210.451 604.898 209.613C604.904 209.608 605.032 209.832 605.081 209.881C605.826 210.64 607.132 211.084 608.094 211.466C609.851 212.165 610.754 211.363 612.426 210.887" stroke="#DFD0FF" stroke-width="1.63344" stroke-linecap="round"/>
<path d="M588.883 209.18C589.239 209.441 589.509 209.738 589.966 209.96C590.494 210.216 591.074 210.426 591.66 210.498C591.967 210.536 592.544 210.433 592.803 210.647C592.986 210.797 592.985 211.698 593.323 212.027C594.274 212.952 595.798 213.009 597.032 213.199C597.662 213.296 597.75 213.444 598.199 213.808C599.296 214.695 600.432 215.027 601.791 215.341C602.673 215.545 603.569 215.363 604.442 215.561C606.092 215.933 607.713 217.218 609.261 217.912" stroke="#DFD0FF" stroke-width="1.63344" stroke-linecap="round"/>
<path d="M588.207 216.097C588.47 216.849 590.08 217.019 590.733 217.119C591.495 217.236 592.297 217.25 593.047 217.421C593.514 217.528 593.639 218.19 593.921 218.52C595.979 220.933 599.618 221.517 602.304 223.013" stroke="#DFD0FF" stroke-width="1.63344" stroke-linecap="round"/>
<circle cx="605.138" cy="199.087" r="2.05095" transform="rotate(29.1159 605.138 199.087)" fill="#E3DC20"/>
<circle cx="603.703" cy="199.238" r="1.22184" transform="rotate(29.1159 603.703 199.238)" fill="#FCF42F"/>
</g>
<g opacity="0.2">
<rect x="518.428" y="188.39" width="35.2589" height="35.2589" rx="2.18187" stroke="#DFD0FF" stroke-width="2.79279" stroke-linecap="round" stroke-linejoin="round"/>
<path d="M523.141 201.403C523.141 205.019 527.94 201.896 529.075 200.786C529.826 200.052 529.574 201.587 529.938 202.202C530.747 203.572 532.675 202.381 533.649 201.911C534.724 201.392 535.297 202.542 536.281 202.873C537.064 203.136 540.606 204.043 541.099 202.81C541.102 202.802 541.323 202.935 541.39 202.955C542.41 203.255 543.767 203.007 544.793 202.873C546.668 202.628 547.066 201.489 548.296 200.26" stroke="#DFD0FF" stroke-width="1.63344" stroke-linecap="round"/>
<path d="M526.898 210.223C527.336 210.278 527.717 210.406 528.223 210.378C528.81 210.345 529.419 210.246 529.966 210.024C530.253 209.907 530.706 209.537 531.036 209.597C531.269 209.64 531.707 210.427 532.162 210.55C533.443 210.896 534.802 210.205 535.973 209.77C536.57 209.548 536.72 209.634 537.289 209.733C538.678 209.975 539.832 209.712 541.173 209.325C542.043 209.074 542.737 208.48 543.596 208.227C545.219 207.75 547.259 208.084 548.95 207.937" stroke="#DFD0FF" stroke-width="1.63344" stroke-linecap="round"/>
<path d="M529.676 216.594C530.272 217.124 531.761 216.489 532.38 216.258C533.102 215.99 533.81 215.612 534.549 215.396C535.009 215.262 535.44 215.78 535.847 215.932C538.819 217.038 542.282 215.777 545.357 215.777" stroke="#DFD0FF" stroke-width="1.63344" stroke-linecap="round"/>
<circle cx="536.188" cy="193.496" r="2.05095" fill="#E3DC20"/>
<circle cx="535.011" cy="194.325" r="1.22184" fill="#FCF42F"/>
</g>
<g opacity="0.2">
<rect x="254.488" y="141.188" width="35.2589" height="35.2589" rx="2.18187" transform="rotate(14.3334 254.488 141.188)" stroke="#DFD0FF" stroke-width="2.79279" stroke-linecap="round" stroke-linejoin="round"/>
<path d="M255.834 154.963C254.939 158.467 260.362 156.629 261.737 155.834C262.646 155.309 262.022 156.734 262.222 157.419C262.667 158.947 264.829 158.271 265.89 158.057C267.06 157.82 267.33 159.076 268.201 159.64C268.895 160.089 272.102 161.844 272.886 160.772C272.891 160.765 273.071 160.949 273.131 160.984C274.045 161.527 275.421 161.623 276.448 161.747C278.326 161.975 278.994 160.969 280.489 160.082" stroke="#DFD0FF" stroke-width="1.63344" stroke-linecap="round"/>
<path d="M257.289 164.439C257.7 164.6 258.037 164.818 258.535 164.916C259.111 165.03 259.726 165.085 260.311 165.005C260.617 164.963 261.148 164.717 261.454 164.857C261.668 164.955 261.897 165.827 262.308 166.058C263.464 166.711 264.952 166.377 266.194 166.246C266.827 166.179 266.951 166.3 267.478 166.536C268.764 167.114 269.947 167.146 271.342 167.102C272.247 167.074 273.067 166.67 273.961 166.638C275.652 166.578 277.546 167.406 279.221 167.682" stroke="#DFD0FF" stroke-width="1.63344" stroke-linecap="round"/>
<path d="M258.401 171.298C258.847 171.959 260.448 171.712 261.104 171.643C261.871 171.561 262.65 171.37 263.419 171.344C263.898 171.328 264.187 171.937 264.544 172.184C267.15 173.992 270.817 173.628 273.796 174.389" stroke="#DFD0FF" stroke-width="1.63344" stroke-linecap="round"/>
<circle cx="270.432" cy="150.532" r="2.05095" transform="rotate(14.3334 270.432 150.532)" fill="#E3DC20"/>
<circle cx="269.084" cy="151.043" r="1.22184" transform="rotate(14.3334 269.084 151.043)" fill="#FCF42F"/>
</g>
<g opacity="0.2">
<rect x="190.019" y="149.763" width="35.2589" height="35.2589" rx="2.18187" transform="rotate(-13.9187 190.019 149.763)" stroke="#DFD0FF" stroke-width="2.79279" stroke-linecap="round" stroke-linejoin="round"/>
<path d="M197.724 161.259C198.594 164.77 202.501 160.584 203.336 159.233C203.888 158.34 204.013 159.89 204.514 160.4C205.629 161.535 207.214 159.916 208.046 159.225C208.965 158.463 209.797 159.441 210.832 159.526C211.655 159.593 215.312 159.621 215.494 158.305C215.495 158.297 215.742 158.373 215.811 158.376C216.873 158.422 218.131 157.855 219.094 157.478C220.856 156.79 220.968 155.588 221.866 154.099" stroke="#DFD0FF" stroke-width="1.63344" stroke-linecap="round"/>
<path d="M203.491 168.917C203.93 168.865 204.33 168.898 204.815 168.748C205.376 168.576 205.943 168.333 206.421 167.986C206.671 167.804 207.022 167.335 207.357 167.314C207.593 167.299 208.208 167.959 208.679 167.968C210.005 167.996 211.159 166.998 212.191 166.294C212.717 165.935 212.883 165.983 213.459 165.942C214.866 165.843 215.923 165.31 217.131 164.612C217.915 164.159 218.446 163.415 219.218 162.963C220.679 162.109 222.74 161.943 224.345 161.393" stroke="#DFD0FF" stroke-width="1.63344" stroke-linecap="round"/>
<path d="M207.719 174.433C208.425 174.804 209.718 173.829 210.263 173.456C210.9 173.022 211.495 172.485 212.161 172.098C212.575 171.857 213.118 172.256 213.549 172.306C216.7 172.664 219.759 170.608 222.743 169.868" stroke="#DFD0FF" stroke-width="1.63344" stroke-linecap="round"/>
<circle cx="208.488" cy="150.446" r="2.05095" transform="rotate(-13.9187 208.488 150.446)" fill="#E3DC20"/>
<circle cx="207.542" cy="151.534" r="1.22184" transform="rotate(-13.9187 207.542 151.534)" fill="#FCF42F"/>
</g>
<g opacity="0.2">
<rect x="197.234" y="192.326" width="35.2589" height="35.2589" rx="2.18187" transform="rotate(18.0739 197.234 192.326)" stroke="#DFD0FF" stroke-width="2.79279" stroke-linecap="round" stroke-linejoin="round"/>
<path d="M197.677 206.159C196.555 209.596 202.086 208.116 203.51 207.413C204.451 206.948 203.736 208.329 203.89 209.026C204.235 210.58 206.437 210.047 207.509 209.902C208.692 209.742 208.879 211.013 209.712 211.633C210.375 212.126 213.461 214.087 214.313 213.067C214.318 213.061 214.487 213.256 214.544 213.295C215.421 213.897 216.787 214.082 217.804 214.274C219.663 214.623 220.395 213.663 221.945 212.876" stroke="#DFD0FF" stroke-width="1.63344" stroke-linecap="round"/>
<path d="M198.513 215.709C198.912 215.897 199.234 216.137 199.725 216.267C200.293 216.418 200.902 216.513 201.491 216.471C201.8 216.449 202.346 216.238 202.641 216.398C202.849 216.51 203.021 217.395 203.415 217.653C204.526 218.379 206.033 218.143 207.281 218.093C207.917 218.068 208.032 218.196 208.543 218.467C209.789 219.128 210.968 219.236 212.362 219.284C213.267 219.315 214.111 218.965 215.006 218.992C216.697 219.041 218.533 219.992 220.186 220.377" stroke="#DFD0FF" stroke-width="1.63344" stroke-linecap="round"/>
<path d="M199.176 222.627C199.578 223.315 201.191 223.174 201.851 223.147C202.621 223.115 203.411 222.976 204.181 223C204.659 223.015 204.908 223.642 205.248 223.912C207.73 225.885 211.414 225.762 214.337 226.715" stroke="#DFD0FF" stroke-width="1.63344" stroke-linecap="round"/>
<circle cx="212.532" cy="202.689" r="2.05095" transform="rotate(18.0739 212.532 202.689)" fill="#E3DC20"/>
<circle cx="211.154" cy="203.112" r="1.22184" transform="rotate(18.0739 211.154 203.112)" fill="#FCF42F"/>
</g>
<g opacity="0.2">
<rect x="248.506" y="194.791" width="35.2589" height="35.2589" rx="2.18187" stroke="#DFD0FF" stroke-width="2.79279" stroke-linecap="round" stroke-linejoin="round"/>
<path d="M253.219 207.804C253.219 211.42 258.018 208.297 259.154 207.187C259.904 206.453 259.653 207.988 260.016 208.603C260.825 209.973 262.753 208.783 263.727 208.312C264.802 207.793 265.375 208.943 266.359 209.274C267.142 209.538 270.684 210.444 271.178 209.211C271.181 209.203 271.401 209.336 271.468 209.356C272.488 209.656 273.845 209.408 274.871 209.274C276.746 209.03 277.145 207.89 278.374 206.661" stroke="#DFD0FF" stroke-width="1.63344" stroke-linecap="round"/>
<path d="M256.977 216.625C257.414 216.68 257.795 216.807 258.301 216.779C258.888 216.747 259.497 216.647 260.044 216.425C260.331 216.309 260.784 215.939 261.115 215.999C261.347 216.041 261.785 216.829 262.24 216.952C263.521 217.297 264.88 216.606 266.051 216.171C266.648 215.949 266.798 216.036 267.367 216.135C268.756 216.376 269.911 216.114 271.251 215.726C272.121 215.475 272.815 214.881 273.674 214.628C275.297 214.151 277.337 214.485 279.028 214.338" stroke="#DFD0FF" stroke-width="1.63344" stroke-linecap="round"/>
<path d="M259.754 222.995C260.35 223.525 261.839 222.89 262.458 222.659C263.18 222.391 263.888 222.013 264.627 221.797C265.087 221.663 265.518 222.181 265.925 222.333C268.897 223.439 272.36 222.178 275.435 222.178" stroke="#DFD0FF" stroke-width="1.63344" stroke-linecap="round"/>
<circle cx="266.266" cy="199.897" r="2.05095" fill="#E3DC20"/>
<circle cx="265.089" cy="200.726" r="1.22184" fill="#FCF42F"/>
</g>
<rect x="155.375" y="263.071" width="493.25" height="5.53591" fill="#0F0F0F"/>
<g opacity="0.5" filter="url(#filter0_f_613_7679)">
<path d="M219.038 256.26H589.944L648.625 277.296H155.375L219.038 256.26Z" fill="#9B51E0"/>
</g>
<path d="M219.038 242.035H589.944L648.625 263.072H155.375L219.038 242.035Z" fill="#393939"/>
<path d="M237.861 237.606H562.266L580.534 241.481H222.914L237.861 237.606Z" fill="#363333"/>
<path d="M237.861 237.053H562.266L580.534 240.928H222.914L237.861 237.053Z" fill="#363636"/>
<path d="M367.121 241.758H391.202H424.418L418.605 246.74H373.211L367.121 241.758Z" fill="#58528C"/>
<rect x="391.48" y="223.766" width="9.68785" height="18.5453" fill="#58528C"/>
<g filter="url(#filter1_f_613_7679)">
<rect x="338.918" y="137.917" width="116.638" height="71.6239" rx="3.54793" fill="#9261FA"/>
</g>
<rect x="322.559" y="134.361" width="145.595" height="89.405" rx="4.42873" fill="#1B1837"/>
<rect x="325.328" y="137.129" width="140.059" height="84.1459" rx="2.21437" fill="white"/>
<rect x="512.445" y="198.855" width="74.8257" height="45.9481" rx="2.27607" fill="#AC8C9B"/>
<rect x="513.867" y="200.277" width="71.9806" height="43.2453" rx="1.13803" fill="white"/>
<path d="M513.929 246.786C514.132 246.608 514.392 246.51 514.661 246.51H585.593C585.898 246.51 586.19 246.636 586.4 246.859L592.9 253.779C593.564 254.486 593.063 255.644 592.093 255.644H506.797C505.777 255.644 505.3 254.38 506.066 253.706L513.929 246.786Z" fill="#664E59"/>
<path d="M513.929 245.679C514.132 245.501 514.392 245.403 514.661 245.403H585.593C585.898 245.403 586.19 245.529 586.4 245.752L592.9 252.672C593.564 253.379 593.063 254.537 592.093 254.537H506.797C505.777 254.537 505.3 253.273 506.066 252.599L513.929 245.679Z" fill="#AC8C9B"/>
<path d="M529.013 251.571L549.293 251.269L549.59 252.443L528.632 252.314L529.013 251.571Z" fill="#1B1015"/>
<path d="M529.011 251.277L549.291 250.974L549.588 252.148L528.63 252.019L529.011 251.277Z" fill="#5C424E"/>
<path d="M513.621 247.62L516.008 247.584L516.049 248.468L513.187 248.468L513.621 247.62Z" fill="#1B1015"/>
<path d="M513.662 247.33L516.049 247.294L516.029 248.173L513.326 248.196L513.662 247.33Z" fill="#5C424E"/>
<path d="M517.296 247.623L518.659 247.602L518.685 248.486L517.05 248.468L517.296 247.623Z" fill="#1B1015"/>
<path d="M517.319 247.333L518.682 247.312L518.673 248.192L517.129 248.197L517.319 247.333Z" fill="#5C424E"/>
<path d="M550.901 247.623L552.264 247.602L552.291 248.486L550.656 248.468L550.901 247.623Z" fill="#1B1015"/>
<path d="M550.924 247.333L552.287 247.312L552.278 248.192L550.734 248.197L550.924 247.333Z" fill="#5C424E"/>
<path d="M516.327 249.391L517.69 249.371L517.716 250.255L516.081 250.237L516.327 249.391Z" fill="#1B1015"/>
<path d="M516.35 249.101L517.713 249.081L517.704 249.96L516.16 249.966L516.35 249.101Z" fill="#5C424E"/>
<path d="M549.936 249.391L551.3 249.371L551.326 250.255L549.691 250.237L549.936 249.391Z" fill="#1B1015"/>
<path d="M549.959 249.101L551.323 249.081L551.313 249.96L549.769 249.966L549.959 249.101Z" fill="#5C424E"/>
<path d="M550.71 251.455L552.073 251.434L552.099 252.318L550.464 252.3L550.71 251.455Z" fill="#1B1015"/>
<path d="M550.733 251.165L552.096 251.144L552.087 252.024L550.543 252.029L550.733 251.165Z" fill="#5C424E"/>
<path d="M514.909 251.479L516.272 251.459L516.299 252.343L514.664 252.325L514.909 251.479Z" fill="#1B1015"/>
<path d="M514.932 251.189L516.295 251.169L516.286 252.048L514.742 252.054L514.932 251.189Z" fill="#5C424E"/>
<path d="M519.999 247.604L521.362 247.584L521.388 248.468L519.753 248.45L519.999 247.604Z" fill="#1B1015"/>
<path d="M520.022 247.314L521.385 247.294L521.376 248.173L519.832 248.179L520.022 247.314Z" fill="#5C424E"/>
<path d="M553.604 247.604L554.968 247.584L554.994 248.468L553.359 248.45L553.604 247.604Z" fill="#1B1015"/>
<path d="M553.627 247.314L554.991 247.294L554.981 248.173L553.437 248.179L553.627 247.314Z" fill="#5C424E"/>
<path d="M519.034 249.373L520.397 249.352L520.424 250.236L518.789 250.218L519.034 249.373Z" fill="#1B1015"/>
<path d="M519.057 249.083L520.42 249.062L520.411 249.942L518.867 249.947L519.057 249.083Z" fill="#5C424E"/>
<path d="M552.639 249.373L554.003 249.352L554.029 250.236L552.394 250.218L552.639 249.373Z" fill="#1B1015"/>
<path d="M552.662 249.083L554.026 249.062L554.016 249.942L552.473 249.947L552.662 249.083Z" fill="#5C424E"/>
<path d="M553.413 251.436L554.776 251.416L554.802 252.3L553.167 252.282L553.413 251.436Z" fill="#1B1015"/>
<path d="M553.436 251.146L554.799 251.126L554.79 252.005L553.246 252.011L553.436 251.146Z" fill="#5C424E"/>
<path d="M518.26 251.436L519.624 251.416L519.65 252.3L518.015 252.282L518.26 251.436Z" fill="#1B1015"/>
<path d="M518.283 251.146L519.647 251.126L519.637 252.005L518.094 252.011L518.283 251.146Z" fill="#5C424E"/>
<path d="M522.702 247.604L524.065 247.584L524.091 248.468L522.456 248.45L522.702 247.604Z" fill="#1B1015"/>
<path d="M522.725 247.314L524.088 247.294L524.079 248.173L522.535 248.179L522.725 247.314Z" fill="#5C424E"/>
<path d="M556.311 247.604L557.675 247.584L557.701 248.468L556.066 248.45L556.311 247.604Z" fill="#1B1015"/>
<path d="M556.334 247.314L557.698 247.294L557.688 248.173L556.144 248.179L556.334 247.314Z" fill="#5C424E"/>
<path d="M570.409 247.899L571.772 247.879L571.799 248.763L570.164 248.744L570.409 247.899Z" fill="#1B1015"/>
<path d="M570.432 247.609L571.795 247.589L571.786 248.468L570.242 248.474L570.432 247.609Z" fill="#5C424E"/>
<path d="M521.737 249.373L523.1 249.352L523.127 250.236L521.492 250.218L521.737 249.373Z" fill="#1B1015"/>
<path d="M521.76 249.083L523.123 249.062L523.114 249.942L521.57 249.947L521.76 249.083Z" fill="#5C424E"/>
<path d="M555.342 249.373L556.706 249.352L556.732 250.236L555.097 250.218L555.342 249.373Z" fill="#1B1015"/>
<path d="M555.365 249.083L556.729 249.062L556.719 249.942L555.176 249.947L555.365 249.083Z" fill="#5C424E"/>
<path d="M556.116 251.436L557.479 251.416L557.506 252.3L555.871 252.282L556.116 251.436Z" fill="#1B1015"/>
<path d="M556.139 251.146L557.502 251.126L557.493 252.005L555.949 252.011L556.139 251.146Z" fill="#5C424E"/>
<path d="M572.534 251.436L573.897 251.416L573.924 252.3L572.289 252.282L572.534 251.436Z" fill="#1B1015"/>
<path d="M572.557 251.146L573.92 251.126L573.911 252.005L572.367 252.011L572.557 251.146Z" fill="#5C424E"/>
<path d="M570.409 251.436L571.772 251.416L571.799 252.3L570.164 252.282L570.409 251.436Z" fill="#1B1015"/>
<path d="M570.432 251.146L571.795 251.126L571.786 252.005L570.242 252.011L570.432 251.146Z" fill="#5C424E"/>
<path d="M520.964 251.436L522.327 251.416L522.353 252.3L520.718 252.282L520.964 251.436Z" fill="#1B1015"/>
<path d="M520.987 251.146L522.35 251.126L522.34 252.005L520.797 252.011L520.987 251.146Z" fill="#5C424E"/>
<path d="M525.405 247.604L526.768 247.584L526.795 248.468L525.16 248.45L525.405 247.604Z" fill="#1B1015"/>
<path d="M525.428 247.314L526.791 247.294L526.782 248.173L525.238 248.179L525.428 247.314Z" fill="#5C424E"/>
<path d="M559.014 247.604L560.378 247.584L560.404 248.468L558.769 248.45L559.014 247.604Z" fill="#1B1015"/>
<path d="M559.037 247.314L560.401 247.294L560.391 248.173L558.848 248.179L559.037 247.314Z" fill="#5C424E"/>
<path d="M575.819 247.604L577.182 247.584L577.209 248.468L575.574 248.45L575.819 247.604Z" fill="#1B1015"/>
<path d="M575.842 247.314L577.205 247.294L577.196 248.173L575.652 248.179L575.842 247.314Z" fill="#5C424E"/>
<path d="M524.44 249.373L525.804 249.352L525.83 250.236L524.195 250.218L524.44 249.373Z" fill="#1B1015"/>
<path d="M524.463 249.083L525.827 249.062L525.817 249.942L524.273 249.947L524.463 249.083Z" fill="#5C424E"/>
<path d="M558.049 249.373L559.413 249.352L559.439 250.236L557.804 250.218L558.049 249.373Z" fill="#1B1015"/>
<path d="M558.072 249.083L559.436 249.062L559.426 249.942L557.883 249.947L558.072 249.083Z" fill="#5C424E"/>
<path d="M558.819 251.436L560.182 251.416L560.209 252.3L558.574 252.282L558.819 251.436Z" fill="#1B1015"/>
<path d="M558.842 251.146L560.205 251.126L560.196 252.005L558.652 252.011L558.842 251.146Z" fill="#5C424E"/>
<path d="M575.046 251.436L576.409 251.416L576.435 252.3L574.8 252.282L575.046 251.436Z" fill="#1B1015"/>
<path d="M575.069 251.146L576.432 251.126L576.423 252.005L574.879 252.011L575.069 251.146Z" fill="#5C424E"/>
<path d="M523.667 251.436L525.03 251.416L525.056 252.3L523.421 252.282L523.667 251.436Z" fill="#1B1015"/>
<path d="M523.69 251.146L525.053 251.126L525.044 252.005L523.5 252.011L523.69 251.146Z" fill="#5C424E"/>
<path d="M528.112 247.604L529.475 247.584L529.502 248.468L527.867 248.45L528.112 247.604Z" fill="#1B1015"/>
<path d="M528.135 247.314L529.498 247.294L529.489 248.173L527.945 248.179L528.135 247.314Z" fill="#5C424E"/>
<path d="M561.717 247.604L563.081 247.584L563.107 248.468L561.472 248.45L561.717 247.604Z" fill="#1B1015"/>
<path d="M561.74 247.314L563.104 247.294L563.094 248.173L561.551 248.179L561.74 247.314Z" fill="#5C424E"/>
<path d="M578.522 247.604L579.886 247.584L579.912 248.468L578.277 248.45L578.522 247.604Z" fill="#1B1015"/>
<path d="M578.545 247.314L579.909 247.294L579.899 248.173L578.355 248.179L578.545 247.314Z" fill="#5C424E"/>
<path d="M527.143 249.373L528.507 249.352L528.533 250.236L526.898 250.218L527.143 249.373Z" fill="#1B1015"/>
<path d="M527.166 249.083L528.53 249.062L528.52 249.942L526.976 249.947L527.166 249.083Z" fill="#5C424E"/>
<path d="M560.753 249.373L562.116 249.352L562.142 250.236L560.507 250.218L560.753 249.373Z" fill="#1B1015"/>
<path d="M560.776 249.083L562.139 249.062L562.13 249.942L560.586 249.947L560.776 249.083Z" fill="#5C424E"/>
<path d="M561.526 251.436L562.889 251.416L562.916 252.3L561.281 252.282L561.526 251.436Z" fill="#1B1015"/>
<path d="M561.549 251.146L562.912 251.126L562.903 252.005L561.359 252.011L561.549 251.146Z" fill="#5C424E"/>
<path d="M572.729 249.668L574.093 249.647L574.119 250.531L572.484 250.513L572.729 249.668Z" fill="#1B1015"/>
<path d="M572.752 249.378L574.116 249.357L574.106 250.237L572.562 250.242L572.752 249.378Z" fill="#5C424E"/>
<path d="M526.374 251.436L527.737 251.416L527.763 252.3L526.128 252.282L526.374 251.436Z" fill="#1B1015"/>
<path d="M526.397 251.146L527.76 251.126L527.751 252.005L526.207 252.011L526.397 251.146Z" fill="#5C424E"/>
<path d="M530.815 247.604L532.179 247.584L532.205 248.468L530.57 248.45L530.815 247.604Z" fill="#1B1015"/>
<path d="M530.838 247.314L532.202 247.294L532.192 248.173L530.648 248.179L530.838 247.314Z" fill="#5C424E"/>
<path d="M564.421 247.604L565.784 247.584L565.81 248.468L564.175 248.45L564.421 247.604Z" fill="#1B1015"/>
<path d="M564.444 247.314L565.807 247.294L565.798 248.173L564.254 248.179L564.444 247.314Z" fill="#5C424E"/>
<path d="M581.225 247.604L582.589 247.584L582.615 248.468L580.98 248.45L581.225 247.604Z" fill="#1B1015"/>
<path d="M581.248 247.314L582.612 247.294L582.602 248.173L581.059 248.179L581.248 247.314Z" fill="#5C424E"/>
<path d="M529.85 249.373L531.214 249.352L531.24 250.236L529.605 250.218L529.85 249.373Z" fill="#1B1015"/>
<path d="M529.873 249.083L531.237 249.062L531.227 249.942L529.684 249.947L529.873 249.083Z" fill="#5C424E"/>
<path d="M563.456 249.373L564.819 249.352L564.845 250.236L563.21 250.218L563.456 249.373Z" fill="#1B1015"/>
<path d="M563.479 249.083L564.842 249.062L564.833 249.942L563.289 249.947L563.479 249.083Z" fill="#5C424E"/>
<path d="M564.229 251.436L565.593 251.416L565.619 252.3L563.984 252.282L564.229 251.436Z" fill="#1B1015"/>
<path d="M564.252 251.146L565.616 251.126L565.606 252.005L564.062 252.011L564.252 251.146Z" fill="#5C424E"/>
<path d="M581.612 249.668L582.975 249.647L583.002 250.531L581.367 250.513L581.612 249.668Z" fill="#1B1015"/>
<path d="M581.635 249.378L582.998 249.357L582.989 250.237L581.445 250.242L581.635 249.378Z" fill="#5C424E"/>
<path d="M582.171 251.479L583.534 251.459L583.56 252.343L581.925 252.325L582.171 251.479Z" fill="#1B1015"/>
<path d="M582.194 251.189L583.557 251.169L583.548 252.048L582.004 252.054L582.194 251.189Z" fill="#5C424E"/>
<path d="M578.522 249.668L579.886 249.647L579.912 250.531L578.277 250.513L578.522 249.668Z" fill="#1B1015"/>
<path d="M578.545 249.378L579.909 249.357L579.899 250.237L578.355 250.242L578.545 249.378Z" fill="#5C424E"/>
<path d="M533.518 247.604L534.882 247.584L534.908 248.468L533.273 248.45L533.518 247.604Z" fill="#1B1015"/>
<path d="M533.541 247.314L534.905 247.294L534.895 248.173L533.351 248.179L533.541 247.314Z" fill="#5C424E"/>
<path d="M532.553 249.373L533.917 249.352L533.943 250.236L532.308 250.218L532.553 249.373Z" fill="#1B1015"/>
<path d="M532.576 249.083L533.94 249.062L533.93 249.942L532.387 249.947L532.576 249.083Z" fill="#5C424E"/>
<path d="M536.221 247.604L537.585 247.584L537.611 248.468L535.976 248.45L536.221 247.604Z" fill="#1B1015"/>
<path d="M536.244 247.314L537.608 247.294L537.598 248.173L536.055 248.179L536.244 247.314Z" fill="#5C424E"/>
<path d="M535.257 249.373L536.62 249.352L536.646 250.236L535.011 250.218L535.257 249.373Z" fill="#1B1015"/>
<path d="M535.28 249.083L536.643 249.062L536.633 249.942L535.09 249.947L535.28 249.083Z" fill="#5C424E"/>
<path d="M538.538 247.604L539.901 247.584L539.927 248.468L538.292 248.45L538.538 247.604Z" fill="#1B1015"/>
<path d="M538.561 247.314L539.924 247.294L539.915 248.173L538.371 248.179L538.561 247.314Z" fill="#5C424E"/>
<path d="M537.573 249.373L538.936 249.352L538.963 250.236L537.328 250.218L537.573 249.373Z" fill="#1B1015"/>
<path d="M537.596 249.083L538.959 249.062L538.95 249.942L537.406 249.947L537.596 249.083Z" fill="#5C424E"/>
<path d="M540.858 247.604L542.221 247.584L542.248 248.468L540.613 248.45L540.858 247.604Z" fill="#1B1015"/>
<path d="M540.881 247.314L542.244 247.294L542.235 248.173L540.691 248.179L540.881 247.314Z" fill="#5C424E"/>
<path d="M539.893 249.373L541.257 249.352L541.283 250.236L539.648 250.218L539.893 249.373Z" fill="#1B1015"/>
<path d="M539.916 249.083L541.28 249.062L541.27 249.942L539.726 249.947L539.916 249.083Z" fill="#5C424E"/>
<path d="M543.174 247.604L544.538 247.584L544.564 248.468L542.929 248.45L543.174 247.604Z" fill="#1B1015"/>
<path d="M543.197 247.314L544.561 247.294L544.551 248.173L543.008 248.179L543.197 247.314Z" fill="#5C424E"/>
<path d="M542.21 249.373L543.573 249.352L543.599 250.236L541.964 250.218L542.21 249.373Z" fill="#1B1015"/>
<path d="M542.233 249.083L543.596 249.062L543.587 249.942L542.043 249.947L542.233 249.083Z" fill="#5C424E"/>
<path d="M545.882 247.604L547.245 247.584L547.271 248.468L545.636 248.45L545.882 247.604Z" fill="#1B1015"/>
<path d="M545.905 247.314L547.268 247.294L547.258 248.173L545.715 248.179L545.905 247.314Z" fill="#5C424E"/>
<path d="M544.913 249.373L546.276 249.352L546.302 250.236L544.667 250.218L544.913 249.373Z" fill="#1B1015"/>
<path d="M544.936 249.083L546.299 249.062L546.29 249.942L544.746 249.947L544.936 249.083Z" fill="#5C424E"/>
<path d="M548.198 247.604L549.561 247.584L549.588 248.468L547.953 248.45L548.198 247.604Z" fill="#1B1015"/>
<path d="M548.221 247.314L549.584 247.294L549.575 248.173L548.031 248.179L548.221 247.314Z" fill="#5C424E"/>
<path d="M547.233 249.373L548.596 249.352L548.623 250.236L546.988 250.218L547.233 249.373Z" fill="#1B1015"/>
<path d="M547.256 249.083L548.619 249.062L548.61 249.942L547.066 249.947L547.256 249.083Z" fill="#5C424E"/>
<path d="M586.021 247.312L584.17 247.339L584.147 248.224L586.367 248.148L586.021 247.312Z" fill="#1B1015"/>
<path d="M585.985 247.023L584.134 247.05L584.16 247.929L586.256 247.88L585.985 247.023Z" fill="#5C424E"/>
<path d="M587.681 249.803L585.83 249.831L585.807 250.715L588.027 250.64L587.681 249.803Z" fill="#1B1015"/>
<path d="M587.645 249.514L585.794 249.542L585.82 250.42L587.916 250.372L587.645 249.514Z" fill="#5C424E"/>
<path d="M588.79 251.464L586.939 251.491L586.917 252.376L589.136 252.3L588.79 251.464Z" fill="#1B1015"/>
<path d="M588.755 251.175L586.903 251.202L586.93 252.081L589.025 252.032L588.755 251.175Z" fill="#5C424E"/>
<path d="M511.724 249.554L513.823 249.523L513.86 250.41L511.343 250.405L511.724 249.554Z" fill="#1B1015"/>
<path d="M511.76 249.263L513.859 249.231L513.842 250.115L511.465 250.133L511.76 249.263Z" fill="#5C424E"/>
<path d="M510.361 251.492L512.46 251.461L512.497 252.348L509.683 252.348L510.361 251.492Z" fill="#1B1015"/>
<path d="M510.397 251.2L512.496 251.169L512.478 252.052L509.917 252.052L510.397 251.2Z" fill="#5C424E"/>
<rect x="544" y="253.937" width="8.02708" height="1.10718" rx="0.553591" fill="#5C424E"/>
<rect x="212.121" y="198.855" width="74.8257" height="45.9481" rx="2.27607" fill="#AC8C9B"/>
<rect x="213.543" y="200.277" width="71.9806" height="43.2453" rx="1.13803" fill="white"/>
<path d="M213.605 246.786C213.807 246.608 214.067 246.51 214.337 246.51H285.268C285.574 246.51 285.866 246.636 286.075 246.859L292.576 253.779C293.24 254.486 292.739 255.644 291.769 255.644H206.473C205.452 255.644 204.975 254.38 205.742 253.706L213.605 246.786Z" fill="#6F4F5E"/>
<path d="M213.605 245.679C213.807 245.501 214.067 245.403 214.337 245.403H285.268C285.574 245.403 285.866 245.529 286.075 245.752L292.576 252.672C293.24 253.379 292.739 254.537 291.769 254.537H206.473C205.452 254.537 204.975 253.273 205.742 252.599L213.605 245.679Z" fill="#AC8C9B"/>
<path d="M228.689 251.572L248.968 251.269L249.266 252.443L228.307 252.314L228.689 251.572Z" fill="#1B1015"/>
<path d="M228.687 251.277L248.966 250.974L249.264 252.149L228.306 252.019L228.687 251.277Z" fill="#5C424E"/>
<path d="M213.292 247.62L215.68 247.584L215.721 248.468L212.859 248.468L213.292 247.62Z" fill="#1B1015"/>
<path d="M213.334 247.33L215.721 247.294L215.7 248.174L212.998 248.196L213.334 247.33Z" fill="#5C424E"/>
<path d="M216.971 247.623L218.335 247.602L218.361 248.486L216.726 248.468L216.971 247.623Z" fill="#1B1015"/>
<path d="M216.994 247.333L218.358 247.312L218.348 248.192L216.805 248.197L216.994 247.333Z" fill="#5C424E"/>
<path d="M250.577 247.623L251.94 247.602L251.966 248.486L250.331 248.468L250.577 247.623Z" fill="#1B1015"/>
<path d="M250.6 247.333L251.963 247.312L251.954 248.192L250.41 248.197L250.6 247.333Z" fill="#5C424E"/>
<path d="M216.003 249.391L217.366 249.371L217.392 250.255L215.757 250.237L216.003 249.391Z" fill="#1B1015"/>
<path d="M216.026 249.101L217.389 249.081L217.38 249.96L215.836 249.966L216.026 249.101Z" fill="#5C424E"/>
<path d="M249.612 249.391L250.975 249.371L251.002 250.255L249.367 250.237L249.612 249.391Z" fill="#1B1015"/>
<path d="M249.635 249.101L250.998 249.081L250.989 249.96L249.445 249.966L249.635 249.101Z" fill="#5C424E"/>
<path d="M250.385 251.455L251.749 251.434L251.775 252.318L250.14 252.3L250.385 251.455Z" fill="#1B1015"/>
<path d="M250.408 251.165L251.772 251.144L251.762 252.024L250.219 252.029L250.408 251.165Z" fill="#5C424E"/>
<path d="M214.585 251.48L215.948 251.459L215.974 252.343L214.339 252.325L214.585 251.48Z" fill="#1B1015"/>
<path d="M214.608 251.189L215.971 251.169L215.962 252.049L214.418 252.054L214.608 251.189Z" fill="#5C424E"/>
<path d="M219.674 247.604L221.038 247.584L221.064 248.468L219.429 248.45L219.674 247.604Z" fill="#1B1015"/>
<path d="M219.697 247.314L221.061 247.294L221.051 248.173L219.508 248.179L219.697 247.314Z" fill="#5C424E"/>
<path d="M253.28 247.604L254.643 247.584L254.67 248.468L253.035 248.45L253.28 247.604Z" fill="#1B1015"/>
<path d="M253.303 247.314L254.666 247.294L254.657 248.173L253.113 248.179L253.303 247.314Z" fill="#5C424E"/>
<path d="M218.71 249.373L220.073 249.353L220.099 250.237L218.464 250.218L218.71 249.373Z" fill="#1B1015"/>
<path d="M218.733 249.083L220.096 249.063L220.087 249.942L218.543 249.947L218.733 249.083Z" fill="#5C424E"/>
<path d="M252.315 249.373L253.679 249.353L253.705 250.237L252.07 250.218L252.315 249.373Z" fill="#1B1015"/>
<path d="M252.338 249.083L253.702 249.063L253.692 249.942L252.148 249.947L252.338 249.083Z" fill="#5C424E"/>
<path d="M253.089 251.436L254.452 251.416L254.478 252.3L252.843 252.282L253.089 251.436Z" fill="#1B1015"/>
<path d="M253.112 251.146L254.475 251.126L254.465 252.005L252.922 252.011L253.112 251.146Z" fill="#5C424E"/>
<path d="M217.936 251.436L219.3 251.416L219.326 252.3L217.691 252.282L217.936 251.436Z" fill="#1B1015"/>
<path d="M217.959 251.146L219.323 251.126L219.313 252.005L217.769 252.011L217.959 251.146Z" fill="#5C424E"/>
<path d="M222.378 247.604L223.741 247.584L223.767 248.468L222.132 248.45L222.378 247.604Z" fill="#1B1015"/>
<path d="M222.401 247.314L223.764 247.294L223.755 248.173L222.211 248.179L222.401 247.314Z" fill="#5C424E"/>
<path d="M255.987 247.604L257.35 247.584L257.377 248.468L255.742 248.45L255.987 247.604Z" fill="#1B1015"/>
<path d="M256.01 247.314L257.373 247.294L257.364 248.173L255.82 248.179L256.01 247.314Z" fill="#5C424E"/>
<path d="M270.085 247.899L271.448 247.879L271.474 248.763L269.839 248.744L270.085 247.899Z" fill="#1B1015"/>
<path d="M270.108 247.609L271.471 247.589L271.462 248.468L269.918 248.474L270.108 247.609Z" fill="#5C424E"/>
<path d="M221.413 249.373L222.776 249.353L222.802 250.237L221.167 250.218L221.413 249.373Z" fill="#1B1015"/>
<path d="M221.436 249.083L222.799 249.063L222.79 249.942L221.246 249.947L221.436 249.083Z" fill="#5C424E"/>
<path d="M255.018 249.373L256.382 249.353L256.408 250.237L254.773 250.218L255.018 249.373Z" fill="#1B1015"/>
<path d="M255.041 249.083L256.405 249.063L256.395 249.942L254.851 249.947L255.041 249.083Z" fill="#5C424E"/>
<path d="M255.792 251.436L257.155 251.416L257.181 252.3L255.546 252.282L255.792 251.436Z" fill="#1B1015"/>
<path d="M255.815 251.146L257.178 251.126L257.169 252.005L255.625 252.011L255.815 251.146Z" fill="#5C424E"/>
<path d="M272.21 251.436L273.573 251.416L273.599 252.3L271.964 252.282L272.21 251.436Z" fill="#1B1015"/>
<path d="M272.233 251.146L273.596 251.126L273.587 252.005L272.043 252.011L272.233 251.146Z" fill="#5C424E"/>
<path d="M270.085 251.436L271.448 251.416L271.474 252.3L269.839 252.282L270.085 251.436Z" fill="#1B1015"/>
<path d="M270.108 251.146L271.471 251.126L271.462 252.005L269.918 252.011L270.108 251.146Z" fill="#5C424E"/>
<path d="M220.639 251.436L222.003 251.416L222.029 252.3L220.394 252.282L220.639 251.436Z" fill="#1B1015"/>
<path d="M220.662 251.146L222.026 251.126L222.016 252.005L220.473 252.011L220.662 251.146Z" fill="#5C424E"/>
<path d="M225.081 247.604L226.444 247.584L226.47 248.468L224.835 248.45L225.081 247.604Z" fill="#1B1015"/>
<path d="M225.104 247.314L226.467 247.294L226.458 248.173L224.914 248.179L225.104 247.314Z" fill="#5C424E"/>
<path d="M258.69 247.604L260.054 247.584L260.08 248.468L258.445 248.45L258.69 247.604Z" fill="#1B1015"/>
<path d="M258.713 247.314L260.077 247.294L260.067 248.173L258.523 248.179L258.713 247.314Z" fill="#5C424E"/>
<path d="M275.495 247.604L276.858 247.584L276.884 248.468L275.249 248.45L275.495 247.604Z" fill="#1B1015"/>
<path d="M275.518 247.314L276.881 247.294L276.872 248.173L275.328 248.179L275.518 247.314Z" fill="#5C424E"/>
<path d="M224.116 249.373L225.479 249.353L225.506 250.237L223.871 250.218L224.116 249.373Z" fill="#1B1015"/>
<path d="M224.139 249.083L225.502 249.063L225.493 249.942L223.949 249.947L224.139 249.083Z" fill="#5C424E"/>
<path d="M257.725 249.373L259.089 249.353L259.115 250.237L257.48 250.218L257.725 249.373Z" fill="#1B1015"/>
<path d="M257.748 249.083L259.112 249.063L259.102 249.942L257.559 249.947L257.748 249.083Z" fill="#5C424E"/>
<path d="M258.495 251.436L259.858 251.416L259.884 252.3L258.249 252.282L258.495 251.436Z" fill="#1B1015"/>
<path d="M258.518 251.146L259.881 251.126L259.872 252.005L258.328 252.011L258.518 251.146Z" fill="#5C424E"/>
<path d="M274.721 251.436L276.085 251.416L276.111 252.3L274.476 252.282L274.721 251.436Z" fill="#1B1015"/>
<path d="M274.744 251.146L276.108 251.126L276.098 252.005L274.555 252.011L274.744 251.146Z" fill="#5C424E"/>
<path d="M223.342 251.436L224.706 251.416L224.732 252.3L223.097 252.282L223.342 251.436Z" fill="#1B1015"/>
<path d="M223.365 251.146L224.729 251.126L224.719 252.005L223.176 252.011L223.365 251.146Z" fill="#5C424E"/>
<path d="M227.788 247.604L229.151 247.584L229.177 248.468L227.542 248.45L227.788 247.604Z" fill="#1B1015"/>
<path d="M227.811 247.314L229.174 247.294L229.165 248.173L227.621 248.179L227.811 247.314Z" fill="#5C424E"/>
<path d="M261.393 247.604L262.757 247.584L262.783 248.468L261.148 248.45L261.393 247.604Z" fill="#1B1015"/>
<path d="M261.416 247.314L262.78 247.294L262.77 248.173L261.226 248.179L261.416 247.314Z" fill="#5C424E"/>
<path d="M278.198 247.604L279.561 247.584L279.588 248.468L277.953 248.45L278.198 247.604Z" fill="#1B1015"/>
<path d="M278.221 247.314L279.584 247.294L279.575 248.173L278.031 248.179L278.221 247.314Z" fill="#5C424E"/>
<path d="M226.819 249.373L228.182 249.353L228.209 250.237L226.574 250.218L226.819 249.373Z" fill="#1B1015"/>
<path d="M226.842 249.083L228.205 249.063L228.196 249.942L226.652 249.947L226.842 249.083Z" fill="#5C424E"/>
<path d="M260.428 249.373L261.792 249.353L261.818 250.237L260.183 250.218L260.428 249.373Z" fill="#1B1015"/>
<path d="M260.451 249.083L261.815 249.063L261.805 249.942L260.262 249.947L260.451 249.083Z" fill="#5C424E"/>
<path d="M261.202 251.436L262.565 251.416L262.591 252.3L260.956 252.282L261.202 251.436Z" fill="#1B1015"/>
<path d="M261.225 251.146L262.588 251.126L262.579 252.005L261.035 252.011L261.225 251.146Z" fill="#5C424E"/>
<path d="M272.401 249.668L273.764 249.647L273.791 250.531L272.156 250.513L272.401 249.668Z" fill="#1B1015"/>
<path d="M272.424 249.378L273.787 249.357L273.778 250.237L272.234 250.242L272.424 249.378Z" fill="#5C424E"/>
<path d="M226.049 251.436L227.413 251.416L227.439 252.3L225.804 252.282L226.049 251.436Z" fill="#1B1015"/>
<path d="M226.072 251.146L227.436 251.126L227.426 252.005L225.883 252.011L226.072 251.146Z" fill="#5C424E"/>
<path d="M230.491 247.604L231.854 247.584L231.881 248.468L230.246 248.45L230.491 247.604Z" fill="#1B1015"/>
<path d="M230.514 247.314L231.877 247.294L231.868 248.173L230.324 248.179L230.514 247.314Z" fill="#5C424E"/>
<path d="M264.096 247.604L265.46 247.584L265.486 248.468L263.851 248.45L264.096 247.604Z" fill="#1B1015"/>
<path d="M264.119 247.314L265.483 247.294L265.473 248.173L263.93 248.179L264.119 247.314Z" fill="#5C424E"/>
<path d="M280.901 247.604L282.264 247.584L282.291 248.468L280.656 248.45L280.901 247.604Z" fill="#1B1015"/>
<path d="M280.924 247.314L282.287 247.294L282.278 248.173L280.734 248.179L280.924 247.314Z" fill="#5C424E"/>
<path d="M229.526 249.373L230.889 249.353L230.916 250.237L229.281 250.218L229.526 249.373Z" fill="#1B1015"/>
<path d="M229.549 249.083L230.912 249.063L230.903 249.942L229.359 249.947L229.549 249.083Z" fill="#5C424E"/>
<path d="M263.132 249.373L264.495 249.353L264.521 250.237L262.886 250.218L263.132 249.373Z" fill="#1B1015"/>
<path d="M263.155 249.083L264.518 249.063L264.508 249.942L262.965 249.947L263.155 249.083Z" fill="#5C424E"/>
<path d="M263.905 251.436L265.268 251.416L265.295 252.3L263.66 252.282L263.905 251.436Z" fill="#1B1015"/>
<path d="M263.928 251.146L265.291 251.126L265.282 252.005L263.738 252.011L263.928 251.146Z" fill="#5C424E"/>
<path d="M281.288 249.668L282.651 249.647L282.677 250.531L281.042 250.513L281.288 249.668Z" fill="#1B1015"/>
<path d="M281.311 249.378L282.674 249.357L282.665 250.237L281.121 250.242L281.311 249.378Z" fill="#5C424E"/>
<path d="M281.846 251.48L283.21 251.459L283.236 252.343L281.601 252.325L281.846 251.48Z" fill="#1B1015"/>
<path d="M281.869 251.189L283.233 251.169L283.223 252.049L281.68 252.054L281.869 251.189Z" fill="#5C424E"/>
<path d="M278.198 249.668L279.561 249.647L279.588 250.531L277.953 250.513L278.198 249.668Z" fill="#1B1015"/>
<path d="M278.221 249.378L279.584 249.357L279.575 250.237L278.031 250.242L278.221 249.378Z" fill="#5C424E"/>
<path d="M233.194 247.604L234.557 247.584L234.584 248.468L232.949 248.45L233.194 247.604Z" fill="#1B1015"/>
<path d="M233.217 247.314L234.58 247.294L234.571 248.173L233.027 248.179L233.217 247.314Z" fill="#5C424E"/>
<path d="M232.229 249.373L233.593 249.353L233.619 250.237L231.984 250.218L232.229 249.373Z" fill="#1B1015"/>
<path d="M232.252 249.083L233.616 249.063L233.606 249.942L232.062 249.947L232.252 249.083Z" fill="#5C424E"/>
<path d="M235.897 247.604L237.261 247.584L237.287 248.468L235.652 248.45L235.897 247.604Z" fill="#1B1015"/>
<path d="M235.92 247.314L237.284 247.294L237.274 248.173L235.73 248.179L235.92 247.314Z" fill="#5C424E"/>
<path d="M234.932 249.373L236.296 249.353L236.322 250.237L234.687 250.218L234.932 249.373Z" fill="#1B1015"/>
<path d="M234.955 249.083L236.319 249.063L236.309 249.942L234.766 249.947L234.955 249.083Z" fill="#5C424E"/>
<path d="M238.214 247.604L239.577 247.584L239.603 248.468L237.968 248.45L238.214 247.604Z" fill="#1B1015"/>
<path d="M238.237 247.314L239.6 247.294L239.59 248.173L238.047 248.179L238.237 247.314Z" fill="#5C424E"/>
<path d="M237.249 249.373L238.612 249.353L238.638 250.237L237.003 250.218L237.249 249.373Z" fill="#1B1015"/>
<path d="M237.272 249.083L238.635 249.063L238.626 249.942L237.082 249.947L237.272 249.083Z" fill="#5C424E"/>
<path d="M240.534 247.604L241.897 247.584L241.924 248.468L240.289 248.45L240.534 247.604Z" fill="#1B1015"/>
<path d="M240.557 247.314L241.92 247.294L241.911 248.173L240.367 248.179L240.557 247.314Z" fill="#5C424E"/>
<path d="M239.569 249.373L240.932 249.353L240.959 250.237L239.324 250.218L239.569 249.373Z" fill="#1B1015"/>
<path d="M239.592 249.083L240.955 249.063L240.946 249.942L239.402 249.947L239.592 249.083Z" fill="#5C424E"/>
<path d="M242.85 247.604L244.214 247.584L244.24 248.468L242.605 248.45L242.85 247.604Z" fill="#1B1015"/>
<path d="M242.873 247.314L244.237 247.294L244.227 248.173L242.684 248.179L242.873 247.314Z" fill="#5C424E"/>
<path d="M241.885 249.373L243.249 249.353L243.275 250.237L241.64 250.218L241.885 249.373Z" fill="#1B1015"/>
<path d="M241.908 249.083L243.272 249.063L243.262 249.942L241.719 249.947L241.908 249.083Z" fill="#5C424E"/>
<path d="M245.557 247.604L246.921 247.584L246.947 248.468L245.312 248.45L245.557 247.604Z" fill="#1B1015"/>
<path d="M245.58 247.314L246.944 247.294L246.934 248.173L245.391 248.179L245.58 247.314Z" fill="#5C424E"/>
<path d="M244.589 249.373L245.952 249.353L245.978 250.237L244.343 250.218L244.589 249.373Z" fill="#1B1015"/>
<path d="M244.612 249.083L245.975 249.063L245.965 249.942L244.422 249.947L244.612 249.083Z" fill="#5C424E"/>
<path d="M247.874 247.604L249.237 247.584L249.263 248.468L247.628 248.45L247.874 247.604Z" fill="#1B1015"/>
<path d="M247.897 247.314L249.26 247.294L249.251 248.173L247.707 248.179L247.897 247.314Z" fill="#5C424E"/>
<path d="M246.909 249.373L248.272 249.353L248.299 250.237L246.664 250.218L246.909 249.373Z" fill="#1B1015"/>
<path d="M246.932 249.083L248.295 249.063L248.286 249.942L246.742 249.947L246.932 249.083Z" fill="#5C424E"/>
<path d="M285.697 247.312L283.845 247.34L283.823 248.224L286.042 248.148L285.697 247.312Z" fill="#1B1015"/>
<path d="M285.661 247.023L283.81 247.05L283.836 247.929L285.932 247.88L285.661 247.023Z" fill="#5C424E"/>
<path d="M287.357 249.803L285.506 249.831L285.483 250.716L287.703 250.64L287.357 249.803Z" fill="#1B1015"/>
<path d="M287.321 249.514L285.47 249.542L285.496 250.421L287.592 250.372L287.321 249.514Z" fill="#5C424E"/>
<path d="M288.466 251.464L286.615 251.491L286.593 252.376L288.812 252.3L288.466 251.464Z" fill="#1B1015"/>
<path d="M288.43 251.175L286.579 251.202L286.605 252.081L288.701 252.032L288.43 251.175Z" fill="#5C424E"/>
<path d="M211.4 249.554L213.499 249.523L213.536 250.411L211.019 250.405L211.4 249.554Z" fill="#1B1015"/>
<path d="M211.436 249.263L213.535 249.231L213.517 250.115L211.141 250.133L211.436 249.263Z" fill="#5C424E"/>
<path d="M210.036 251.492L212.135 251.461L212.173 252.348L209.359 252.348L210.036 251.492Z" fill="#1B1015"/>
<path d="M210.073 251.2L212.172 251.169L212.154 252.052L209.593 252.052L210.073 251.2Z" fill="#5C424E"/>
<rect x="243.672" y="253.937" width="8.02708" height="1.10718" rx="0.553591" fill="#5C424E"/>
<path d="M324.759 250.414C325.02 250.274 325.312 250.2 325.609 250.2H464.124C464.357 250.2 464.587 250.246 464.803 250.333L483.826 258.084C485.655 258.829 485.122 261.549 483.147 261.549H311.166C309.295 261.549 308.667 259.049 310.315 258.164L324.759 250.414L324.562 250.048L324.759 250.414Z" fill="#353535" stroke="#524FFC" stroke-width="0.830387"/>
<path d="M338.841 253.726C339.05 253.507 339.339 253.383 339.642 253.383H443.14C443.545 253.383 443.918 253.605 444.112 253.96L446.225 257.836C446.628 258.573 446.094 259.473 445.253 259.473H335.943C334.969 259.473 334.47 258.306 335.142 257.601L338.841 253.726Z" fill="#828282"/>
<path d="M338.841 253.173C339.05 252.954 339.339 252.83 339.642 252.83H443.14C443.545 252.83 443.918 253.051 444.112 253.407L446.225 257.282C446.628 258.02 446.094 258.919 445.253 258.919H335.943C334.969 258.919 334.47 257.752 335.142 257.048L338.841 253.173Z" fill="#C52F82"/>
<path d="M361.306 257.123L390.368 256.839L390.794 257.942L360.759 257.821L361.306 257.123Z" fill="#9D9393"/>
<path d="M361.304 256.847L390.366 256.562L390.792 257.665L360.757 257.544L361.304 256.847Z" fill="#D9D9D9"/>
<path d="M339.245 253.413L342.666 253.379L342.726 254.209L338.624 254.209L339.245 253.413Z" fill="#9D9393"/>
<path d="M339.305 253.14L342.726 253.107L342.696 253.933L338.823 253.954L339.305 253.14Z" fill="#D9D9D9"/>
<path d="M344.51 253.415L346.464 253.396L346.502 254.226L344.159 254.209L344.51 253.415Z" fill="#9D9393"/>
<path d="M344.543 253.143L346.497 253.124L346.484 253.95L344.271 253.955L344.543 253.143Z" fill="#D9D9D9"/>
<path d="M392.675 253.415L394.628 253.396L394.666 254.226L392.323 254.209L392.675 253.415Z" fill="#9D9393"/>
<path d="M392.707 253.143L394.661 253.124L394.648 253.95L392.436 253.955L392.707 253.143Z" fill="#D9D9D9"/>
<path d="M343.128 255.076L345.082 255.057L345.119 255.887L342.776 255.87L343.128 255.076Z" fill="#9D9393"/>
<path d="M343.161 254.804L345.114 254.785L345.101 255.61L342.889 255.616L343.161 254.804Z" fill="#D9D9D9"/>
<path d="M391.288 255.076L393.242 255.057L393.279 255.887L390.936 255.87L391.288 255.076Z" fill="#9D9393"/>
<path d="M391.321 254.804L393.275 254.785L393.261 255.61L391.049 255.616L391.321 254.804Z" fill="#D9D9D9"/>
<path d="M392.397 257.014L394.351 256.995L394.389 257.825L392.046 257.807L392.397 257.014Z" fill="#9D9393"/>
<path d="M392.43 256.741L394.384 256.722L394.37 257.548L392.158 257.553L392.43 256.741Z" fill="#D9D9D9"/>
<path d="M342.018 257.014L343.972 256.995L344.01 257.825L341.667 257.807L342.018 257.014Z" fill="#9D9393"/>
<path d="M342.051 256.741L344.005 256.722L343.992 257.548L341.779 257.553L342.051 256.741Z" fill="#D9D9D9"/>
<path d="M348.385 253.398L350.339 253.379L350.377 254.209L348.034 254.192L348.385 253.398Z" fill="#9D9393"/>
<path d="M348.418 253.126L350.372 253.107L350.359 253.932L348.146 253.938L348.418 253.126Z" fill="#D9D9D9"/>
<path d="M396.55 253.398L398.503 253.379L398.541 254.209L396.198 254.192L396.55 253.398Z" fill="#9D9393"/>
<path d="M396.582 253.126L398.536 253.107L398.523 253.932L396.311 253.938L396.582 253.126Z" fill="#D9D9D9"/>
<path d="M347.003 255.059L348.957 255.04L348.994 255.87L346.651 255.853L347.003 255.059Z" fill="#9D9393"/>
<path d="M347.036 254.787L348.989 254.767L348.976 255.593L346.764 255.598L347.036 254.787Z" fill="#D9D9D9"/>
<path d="M395.163 255.059L397.117 255.04L397.154 255.87L394.811 255.853L395.163 255.059Z" fill="#9D9393"/>
<path d="M395.196 254.787L397.15 254.767L397.136 255.593L394.924 255.598L395.196 254.787Z" fill="#D9D9D9"/>
<path d="M396.272 256.996L398.226 256.977L398.264 257.807L395.921 257.79L396.272 256.996Z" fill="#9D9393"/>
<path d="M396.305 256.724L398.259 256.705L398.245 257.531L396.033 257.536L396.305 256.724Z" fill="#D9D9D9"/>
<path d="M345.893 256.996L347.847 256.977L347.885 257.807L345.542 257.79L345.893 256.996Z" fill="#9D9393"/>
<path d="M345.926 256.724L347.88 256.705L347.867 257.531L345.654 257.536L345.926 256.724Z" fill="#D9D9D9"/>
<path d="M352.26 253.398L354.214 253.379L354.252 254.209L351.909 254.192L352.26 253.398Z" fill="#9D9393"/>
<path d="M352.293 253.126L354.247 253.107L354.234 253.932L352.021 253.938L352.293 253.126Z" fill="#D9D9D9"/>
<path d="M400.425 253.398L402.378 253.379L402.416 254.209L400.073 254.192L400.425 253.398Z" fill="#9D9393"/>
<path d="M400.457 253.126L402.411 253.107L402.398 253.932L400.186 253.938L400.457 253.126Z" fill="#D9D9D9"/>
<path d="M420.628 253.675L422.582 253.656L422.619 254.486L420.276 254.469L420.628 253.675Z" fill="#9D9393"/>
<path d="M420.661 253.403L422.614 253.383L422.601 254.209L420.389 254.214L420.661 253.403Z" fill="#D9D9D9"/>
<path d="M350.878 255.059L352.832 255.04L352.869 255.87L350.526 255.853L350.878 255.059Z" fill="#9D9393"/>
<path d="M350.911 254.787L352.864 254.767L352.851 255.593L350.639 255.598L350.911 254.787Z" fill="#D9D9D9"/>
<path d="M399.038 255.059L400.992 255.04L401.029 255.87L398.686 255.853L399.038 255.059Z" fill="#9D9393"/>
<path d="M399.071 254.787L401.025 254.767L401.011 255.593L398.799 255.598L399.071 254.787Z" fill="#D9D9D9"/>
<path d="M400.147 256.996L402.101 256.977L402.139 257.807L399.796 257.79L400.147 256.996Z" fill="#9D9393"/>
<path d="M400.18 256.724L402.134 256.705L402.12 257.531L399.908 257.536L400.18 256.724Z" fill="#D9D9D9"/>
<path d="M423.675 256.996L425.628 256.977L425.666 257.807L423.323 257.79L423.675 256.996Z" fill="#9D9393"/>
<path d="M423.707 256.724L425.661 256.705L425.648 257.531L423.436 257.536L423.707 256.724Z" fill="#D9D9D9"/>
<path d="M420.628 256.996L422.582 256.977L422.619 257.807L420.276 257.79L420.628 256.996Z" fill="#9D9393"/>
<path d="M420.661 256.724L422.614 256.705L422.601 257.531L420.389 257.536L420.661 256.724Z" fill="#D9D9D9"/>
<path d="M349.768 256.996L351.722 256.977L351.76 257.807L349.417 257.79L349.768 256.996Z" fill="#9D9393"/>
<path d="M349.801 256.724L351.755 256.705L351.742 257.531L349.529 257.536L349.801 256.724Z" fill="#D9D9D9"/>
<path d="M356.135 253.398L358.089 253.379L358.127 254.209L355.784 254.192L356.135 253.398Z" fill="#9D9393"/>
<path d="M356.168 253.126L358.122 253.107L358.109 253.932L355.896 253.938L356.168 253.126Z" fill="#D9D9D9"/>
<path d="M404.3 253.398L406.253 253.379L406.291 254.209L403.948 254.192L404.3 253.398Z" fill="#9D9393"/>
<path d="M404.332 253.126L406.286 253.107L406.273 253.932L404.061 253.938L404.332 253.126Z" fill="#D9D9D9"/>
<path d="M428.382 253.398L430.335 253.379L430.373 254.209L428.03 254.192L428.382 253.398Z" fill="#9D9393"/>
<path d="M428.415 253.126L430.368 253.107L430.355 253.932L428.143 253.938L428.415 253.126Z" fill="#D9D9D9"/>
<path d="M354.753 255.059L356.707 255.04L356.744 255.87L354.401 255.853L354.753 255.059Z" fill="#9D9393"/>
<path d="M354.786 254.787L356.739 254.767L356.726 255.593L354.514 255.598L354.786 254.787Z" fill="#D9D9D9"/>
<path d="M402.917 255.059L404.871 255.04L404.908 255.87L402.565 255.853L402.917 255.059Z" fill="#9D9393"/>
<path d="M402.95 254.787L404.904 254.767L404.89 255.593L402.678 255.598L402.95 254.787Z" fill="#D9D9D9"/>
<path d="M404.022 256.996L405.976 256.977L406.014 257.807L403.671 257.79L404.022 256.996Z" fill="#9D9393"/>
<path d="M404.055 256.724L406.009 256.705L405.995 257.531L403.783 257.536L404.055 256.724Z" fill="#D9D9D9"/>
<path d="M427.272 256.996L429.226 256.977L429.264 257.807L426.921 257.79L427.272 256.996Z" fill="#9D9393"/>
<path d="M427.305 256.724L429.259 256.705L429.245 257.531L427.033 257.536L427.305 256.724Z" fill="#D9D9D9"/>
<path d="M353.643 256.996L355.597 256.977L355.635 257.807L353.292 257.79L353.643 256.996Z" fill="#9D9393"/>
<path d="M353.676 256.724L355.63 256.705L355.617 257.531L353.404 257.536L353.676 256.724Z" fill="#D9D9D9"/>
<path d="M360.01 253.398L361.964 253.379L362.002 254.209L359.659 254.192L360.01 253.398Z" fill="#9D9393"/>
<path d="M360.043 253.126L361.997 253.107L361.984 253.932L359.771 253.938L360.043 253.126Z" fill="#D9D9D9"/>
<path d="M408.175 253.398L410.128 253.379L410.166 254.209L407.823 254.192L408.175 253.398Z" fill="#9D9393"/>
<path d="M408.207 253.126L410.161 253.107L410.148 253.932L407.936 253.938L408.207 253.126Z" fill="#D9D9D9"/>
<path d="M432.257 253.398L434.21 253.379L434.248 254.209L431.905 254.192L432.257 253.398Z" fill="#9D9393"/>
<path d="M432.29 253.126L434.243 253.107L434.23 253.932L432.018 253.938L432.29 253.126Z" fill="#D9D9D9"/>
<path d="M358.628 255.059L360.582 255.04L360.619 255.87L358.276 255.853L358.628 255.059Z" fill="#9D9393"/>
<path d="M358.661 254.787L360.614 254.767L360.601 255.593L358.389 255.598L358.661 254.787Z" fill="#D9D9D9"/>
<path d="M406.788 255.059L408.742 255.04L408.779 255.87L406.436 255.853L406.788 255.059Z" fill="#9D9393"/>
<path d="M406.821 254.787L408.775 254.767L408.761 255.593L406.549 255.598L406.821 254.787Z" fill="#D9D9D9"/>
<path d="M407.897 256.996L409.851 256.977L409.889 257.807L407.546 257.79L407.897 256.996Z" fill="#9D9393"/>
<path d="M407.93 256.724L409.884 256.705L409.87 257.531L407.658 257.536L407.93 256.724Z" fill="#D9D9D9"/>
<path d="M423.952 255.336L425.906 255.317L425.943 256.147L423.6 256.129L423.952 255.336Z" fill="#9D9393"/>
<path d="M423.985 255.063L425.939 255.044L425.925 255.87L423.713 255.875L423.985 255.063Z" fill="#D9D9D9"/>
<path d="M357.518 256.996L359.472 256.977L359.51 257.807L357.167 257.79L357.518 256.996Z" fill="#9D9393"/>
<path d="M357.551 256.724L359.505 256.705L359.492 257.531L357.279 257.536L357.551 256.724Z" fill="#D9D9D9"/>
<path d="M363.885 253.398L365.839 253.379L365.877 254.209L363.534 254.192L363.885 253.398Z" fill="#9D9393"/>
<path d="M363.918 253.126L365.872 253.107L365.859 253.932L363.646 253.938L363.918 253.126Z" fill="#D9D9D9"/>
<path d="M412.05 253.398L414.003 253.379L414.041 254.209L411.698 254.192L412.05 253.398Z" fill="#9D9393"/>
<path d="M412.082 253.126L414.036 253.107L414.023 253.932L411.811 253.938L412.082 253.126Z" fill="#D9D9D9"/>
<path d="M436.132 253.398L438.085 253.379L438.123 254.209L435.78 254.192L436.132 253.398Z" fill="#9D9393"/>
<path d="M436.165 253.126L438.118 253.107L438.105 253.932L435.893 253.938L436.165 253.126Z" fill="#D9D9D9"/>
<path d="M362.503 255.059L364.457 255.04L364.494 255.87L362.151 255.853L362.503 255.059Z" fill="#9D9393"/>
<path d="M362.536 254.787L364.489 254.767L364.476 255.593L362.264 255.598L362.536 254.787Z" fill="#D9D9D9"/>
<path d="M410.667 255.059L412.621 255.04L412.658 255.87L410.315 255.853L410.667 255.059Z" fill="#9D9393"/>
<path d="M410.7 254.787L412.654 254.767L412.64 255.593L410.428 255.598L410.7 254.787Z" fill="#D9D9D9"/>
<path d="M411.772 256.996L413.726 256.977L413.764 257.807L411.421 257.79L411.772 256.996Z" fill="#9D9393"/>
<path d="M411.805 256.724L413.759 256.705L413.745 257.531L411.533 257.536L411.805 256.724Z" fill="#D9D9D9"/>
<path d="M436.682 255.336L438.636 255.317L438.674 256.147L436.331 256.129L436.682 255.336Z" fill="#9D9393"/>
<path d="M436.715 255.063L438.669 255.044L438.656 255.87L436.443 255.875L436.715 255.063Z" fill="#D9D9D9"/>
<path d="M437.792 257.55L439.746 257.531L439.783 258.361L437.44 258.344L437.792 257.55Z" fill="#9D9393"/>
<path d="M437.825 257.278L439.779 257.259L439.765 258.084L437.553 258.09L437.825 257.278Z" fill="#D9D9D9"/>
<path d="M432.257 255.336L434.21 255.317L434.248 256.147L431.905 256.129L432.257 255.336Z" fill="#9D9393"/>
<path d="M432.29 255.063L434.243 255.044L434.23 255.87L432.018 255.875L432.29 255.063Z" fill="#D9D9D9"/>
<path d="M367.76 253.398L369.714 253.379L369.752 254.209L367.409 254.192L367.76 253.398Z" fill="#9D9393"/>
<path d="M367.793 253.126L369.747 253.107L369.734 253.932L367.521 253.938L367.793 253.126Z" fill="#D9D9D9"/>
<path d="M366.378 255.059L368.332 255.04L368.369 255.87L366.026 255.853L366.378 255.059Z" fill="#9D9393"/>
<path d="M366.411 254.787L368.364 254.767L368.351 255.593L366.139 255.598L366.411 254.787Z" fill="#D9D9D9"/>
<path d="M371.635 253.398L373.589 253.379L373.627 254.209L371.284 254.192L371.635 253.398Z" fill="#9D9393"/>
<path d="M371.668 253.126L373.622 253.107L373.609 253.932L371.396 253.938L371.668 253.126Z" fill="#D9D9D9"/>
<path d="M370.253 255.059L372.207 255.04L372.244 255.87L369.901 255.853L370.253 255.059Z" fill="#9D9393"/>
<path d="M370.286 254.787L372.239 254.767L372.226 255.593L370.014 255.598L370.286 254.787Z" fill="#D9D9D9"/>
<path d="M374.96 253.398L376.914 253.379L376.951 254.209L374.608 254.192L374.96 253.398Z" fill="#9D9393"/>
<path d="M374.993 253.126L376.947 253.107L376.933 253.932L374.721 253.938L374.993 253.126Z" fill="#D9D9D9"/>
<path d="M373.573 255.059L375.527 255.04L375.564 255.87L373.221 255.853L373.573 255.059Z" fill="#9D9393"/>
<path d="M373.606 254.787L375.56 254.767L375.546 255.593L373.334 255.598L373.606 254.787Z" fill="#D9D9D9"/>
<path d="M378.28 253.398L380.234 253.379L380.271 254.209L377.928 254.192L378.28 253.398Z" fill="#9D9393"/>
<path d="M378.313 253.126L380.267 253.107L380.253 253.932L378.041 253.938L378.313 253.126Z" fill="#D9D9D9"/>
<path d="M376.897 255.059L378.851 255.04L378.889 255.87L376.546 255.853L376.897 255.059Z" fill="#9D9393"/>
<path d="M376.93 254.787L378.884 254.767L378.87 255.593L376.658 255.598L376.93 254.787Z" fill="#D9D9D9"/>
<path d="M381.6 253.398L383.554 253.379L383.592 254.209L381.249 254.192L381.6 253.398Z" fill="#9D9393"/>
<path d="M381.633 253.126L383.587 253.107L383.574 253.932L381.361 253.938L381.633 253.126Z" fill="#D9D9D9"/>
<path d="M380.217 255.059L382.171 255.04L382.209 255.87L379.866 255.853L380.217 255.059Z" fill="#9D9393"/>
<path d="M380.25 254.787L382.204 254.767L382.191 255.593L379.978 255.598L380.25 254.787Z" fill="#D9D9D9"/>
<path d="M385.475 253.398L387.429 253.379L387.467 254.209L385.124 254.192L385.475 253.398Z" fill="#9D9393"/>
<path d="M385.508 253.126L387.462 253.107L387.449 253.932L385.236 253.938L385.508 253.126Z" fill="#D9D9D9"/>
<path d="M384.092 255.059L386.046 255.04L386.084 255.87L383.741 255.853L384.092 255.059Z" fill="#9D9393"/>
<path d="M384.125 254.787L386.079 254.767L386.066 255.593L383.853 255.598L384.125 254.787Z" fill="#D9D9D9"/>
<path d="M388.8 253.398L390.753 253.379L390.791 254.209L388.448 254.192L388.8 253.398Z" fill="#9D9393"/>
<path d="M388.832 253.126L390.786 253.107L390.773 253.932L388.561 253.938L388.832 253.126Z" fill="#D9D9D9"/>
<path d="M387.413 255.059L389.367 255.04L389.404 255.87L387.061 255.853L387.413 255.059Z" fill="#9D9393"/>
<path d="M387.446 254.787L389.4 254.767L389.386 255.593L387.174 255.598L387.446 254.787Z" fill="#D9D9D9"/>
<path d="M442.901 253.66L440.249 253.686L440.217 254.517L443.397 254.446L442.901 253.66Z" fill="#9D9393"/>
<path d="M442.85 253.389L440.197 253.415L440.235 254.24L443.238 254.194L442.85 253.389Z" fill="#D9D9D9"/>
<path d="M443.73 255.321L441.077 255.347L441.045 256.178L444.225 256.106L443.73 255.321Z" fill="#9D9393"/>
<path d="M443.679 255.049L441.026 255.075L441.063 255.901L444.066 255.855L443.679 255.049Z" fill="#D9D9D9"/>
<path d="M444.562 256.982L441.909 257.008L441.877 257.838L445.057 257.767L444.562 256.982Z" fill="#9D9393"/>
<path d="M444.511 256.71L441.858 256.736L441.895 257.561L444.899 257.516L444.511 256.71Z" fill="#D9D9D9"/>
<path d="M338.064 254.794L341.072 254.764L341.125 255.598L337.518 255.593L338.064 254.794Z" fill="#9D9393"/>
<path d="M338.116 254.52L341.124 254.491L341.099 255.32L337.693 255.337L338.116 254.52Z" fill="#D9D9D9"/>
<path d="M336.954 257.008L339.962 256.979L340.016 257.812L335.983 257.812L336.954 257.008Z" fill="#9D9393"/>
<path d="M337.006 256.735L340.014 256.705L339.989 257.535L336.319 257.535L337.006 256.735Z" fill="#D9D9D9"/>
<path d="M472.029 253.522C472.029 256.045 467.381 258.089 461.649 258.089C455.916 258.089 451.961 254.522 451.961 252C451.961 249.478 455.916 248.955 461.649 248.955C467.381 248.955 472.029 251 472.029 253.522Z" fill="#4F2F61"/>
<path d="M452.238 250.892C452.26 250.827 452.292 250.766 452.336 250.716C453.421 249.104 459.119 248.866 461.926 248.955C470.562 248.955 472.168 252.369 471.891 254.075C470.784 258.726 461.834 256.843 457.497 255.321C454.191 250.612 452.751 250.232 452.336 250.716C452.298 250.773 452.265 250.832 452.238 250.892Z" fill="#C52F82"/>
<g clip-path="url(#clip0_613_7679)">
<rect x="325.145" y="136.769" width="140.47" height="84.6833" rx="2.85116" fill="white"/>
<rect x="325.145" y="136.769" width="140.47" height="9.63222" fill="#303030"/>
<mask id="path-280-inside-1_613_7679" fill="white">
<path d="M325.145 146.402H347.218V221.453H325.145V146.402Z"/>
</mask>
<path d="M325.145 146.402H347.218V221.453H325.145V146.402Z" fill="#EDEDED"/>
<path d="M346.828 146.402V221.453H347.609V146.402H346.828Z" fill="#BFBBBB" mask="url(#path-280-inside-1_613_7679)"/>
<mask id="path-282-inside-2_613_7679" fill="white">
<path d="M443.137 146.402H465.612V222.657H443.137V146.402Z"/>
</mask>
<path d="M443.137 146.402H465.612V222.657H443.137V146.402Z" fill="#EDEDED"/>
<path d="M443.527 222.657V146.402H442.747V222.657H443.527Z" fill="#BFBBBB" mask="url(#path-282-inside-2_613_7679)"/>
<rect x="451.551" y="140.086" width="6.82759" height="3.12931" rx="0.568965" fill="#5C8AFF"/>
<rect x="445.895" y="140.086" width="3.12118" height="3.12118" rx="1.56059" fill="#FC5CFF"/>
<rect x="341.824" y="140.378" width="2.53596" height="2.53596" rx="1.26798" stroke="white" stroke-width="0.585222"/>
<rect x="330.215" y="136.769" width="8.1931" height="9.75369" fill="#5C8AFF"/>
<rect x="332.265" y="139.598" width="4.09655" height="4.09655" stroke="white" stroke-width="0.585222"/>
<path d="M348.538 142.719L349.72 140.671L350.903 142.719H348.538Z" stroke="white" stroke-width="0.585222"/>
<path d="M356.748 140.447L356.907 140.939L356.973 141.141H357.186H357.702L357.284 141.445L357.112 141.57L357.178 141.772L357.338 142.263L356.92 141.96L356.748 141.835L356.576 141.96L356.158 142.263L356.317 141.772L356.383 141.57L356.211 141.445L355.793 141.141H356.31H356.522L356.588 140.939L356.748 140.447Z" stroke="white" stroke-width="0.585222"/>
<line x1="361.609" y1="143.028" x2="364.368" y2="140.269" stroke="white" stroke-width="0.585222"/>
</g>
<rect x="368.5" y="162.805" width="43.27" height="43.27" fill="#FF8B8B"/>
<circle cx="425.889" cy="195.991" r="18.8848" fill="#9261FA"/>
<path d="M444.591 152.538L461.581 181.965H427.601L444.591 152.538Z" fill="#89D391"/>
<path d="M465.307 167.572L472.058 188.349H493.905L476.23 201.19L482.981 221.967L465.307 209.126L447.633 221.967L454.384 201.19L436.71 188.349H458.556L465.307 167.572Z" fill="#EBBD19"/>
<g clip-path="url(#clip1_613_7679)">
<rect x="213.57" y="200.182" width="72.2417" height="43.7463" rx="1.10208" fill="#252525"/>
<rect x="213.57" y="200.182" width="6.33697" height="43.5322" fill="#515151"/>
<rect x="219.906" y="200.182" width="17.0823" height="43.5322" fill="#3E3E3E"/>
<rect x="236.988" y="200.182" width="48.2161" height="43.5322" fill="#252525"/>
<rect x="224.676" y="203.957" width="9.54982" height="1.11044" fill="#DCDCDC"/>
<rect x="222.344" y="203.957" width="1.11044" height="1.11044" fill="#5C8AFF"/>
<rect x="224.676" y="207.51" width="9.54982" height="1.11044" fill="#DCDCDC"/>
<rect x="222.344" y="207.51" width="1.11044" height="1.11044" fill="#5C8AFF"/>
<rect x="239.773" y="203.957" width="20.8764" height="1.11044" fill="#89D391"/>
<rect x="239.773" y="211.508" width="5.55222" height="1.11044" fill="#DB9139"/>
<rect x="239.773" y="206.955" width="20.8764" height="1.11044" fill="#89D391"/>
<rect x="239.773" y="216.061" width="5.214" height="1.11044" fill="#CE89D3"/>
<rect x="246.633" y="216.061" width="12.349" height="1.11044" fill="#98B5FF"/>
<rect x="261.043" y="216.061" width="21.1304" height="1.11044" fill="#DB9139"/>
<rect x="239.773" y="219.059" width="5.214" height="1.11044" fill="#CE89D3"/>
<rect x="246.633" y="219.059" width="12.349" height="1.11044" fill="#98B5FF"/>
<rect x="261.043" y="219.059" width="21.1304" height="1.11044" fill="#DB9139"/>
<rect x="239.773" y="222.057" width="5.214" height="1.11044" fill="#CE89D3"/>
<rect x="246.633" y="222.057" width="12.349" height="1.11044" fill="#98B5FF"/>
<rect x="261.043" y="222.057" width="21.1304" height="1.11044" fill="#DB9139"/>
<rect x="239.773" y="228.054" width="5.214" height="1.11044" fill="#CE89D3"/>
<rect x="246.633" y="228.054" width="12.349" height="1.11044" fill="#98B5FF"/>
<rect x="261.043" y="228.054" width="21.1304" height="1.11044" fill="#DB9139"/>
<rect x="239.773" y="225.055" width="5.214" height="1.11044" fill="#CE89D3"/>
<rect x="246.633" y="225.055" width="35.5375" height="1.11044" fill="#98B5FF"/>
<rect x="224.676" y="211.064" width="9.54982" height="1.11044" fill="#DCDCDC"/>
<rect x="222.344" y="211.064" width="1.11044" height="1.11044" fill="#5C8AFF"/>
<rect x="224.676" y="214.617" width="9.54982" height="1.11044" fill="#DCDCDC"/>
<rect x="222.344" y="214.617" width="1.11044" height="1.11044" fill="#FFEF5C"/>
<rect x="224.676" y="218.171" width="9.54982" height="1.11044" fill="#DCDCDC"/>
<rect x="222.344" y="218.171" width="1.11044" height="1.11044" fill="#FF5C5C"/>
<rect x="213.57" y="201.847" width="6.21849" height="6.21849" fill="#3E3E3E"/>
<rect x="215.125" y="203.513" width="2.9982" height="2.9982" rx="0.888355" fill="#D9D9D9"/>
<rect x="215.125" y="209.509" width="2.9982" height="2.9982" rx="0.888355" fill="#D9D9D9"/>
<rect x="215.125" y="214.506" width="2.9982" height="2.9982" rx="0.888355" fill="#D9D9D9"/>
</g>
<g clip-path="url(#clip2_613_7679)">
<rect x="513.773" y="205.399" width="54.5826" height="38.5289" fill="#696969"/>
<rect x="568.355" y="204.596" width="17.6591" height="38.9302" fill="#333333"/>
<rect x="513.773" y="200.182" width="72.2417" height="5.21745" fill="#484848"/>
<rect x="576.047" y="201.444" width="6.71405" height="2.34211" rx="0.671405" fill="#FF5151"/>
<circle cx="524.25" cy="214.856" r="7.62529" fill="#D9D9D9"/>
<circle cx="524.251" cy="214.088" r="1.7006" fill="#969696"/>
<mask id="mask0_613_7679" style="mask-type:alpha" maskUnits="userSpaceOnUse" x="519" y="209" width="11" height="11">
<rect x="519.367" y="209.974" width="9.87448" height="9.87448" rx="4.93724" fill="#D9D9D9"/>
</mask>
<g mask="url(#mask0_613_7679)">
<circle cx="524.305" cy="221.055" r="5.26639" fill="#969696"/>
</g>
<circle cx="524.25" cy="233.8" r="7.62529" fill="#D9D9D9"/>
<circle cx="524.251" cy="233.032" r="1.7006" fill="#969696"/>
<mask id="mask1_613_7679" style="mask-type:alpha" maskUnits="userSpaceOnUse" x="519" y="228" width="11" height="11">
<rect x="519.367" y="228.917" width="9.87448" height="9.87448" rx="4.93724" fill="#D9D9D9"/>
</mask>
<g mask="url(#mask1_613_7679)">
<circle cx="524.305" cy="239.999" r="5.26639" fill="#969696"/>
</g>
<circle cx="542.02" cy="214.856" r="7.62529" fill="#D9D9D9"/>
<circle cx="542.021" cy="214.088" r="1.7006" fill="#969696"/>
<mask id="mask2_613_7679" style="mask-type:alpha" maskUnits="userSpaceOnUse" x="537" y="209" width="11" height="11">
<rect x="537.137" y="209.974" width="9.87448" height="9.87448" rx="4.93724" fill="#D9D9D9"/>
</mask>
<g mask="url(#mask2_613_7679)">
<circle cx="542.075" cy="221.055" r="5.26639" fill="#969696"/>
</g>
<circle cx="561.61" cy="212.435" r="5.03554" fill="#D9D9D9"/>
<circle cx="561.611" cy="211.927" r="1.12303" fill="#969696"/>
<mask id="mask3_613_7679" style="mask-type:alpha" maskUnits="userSpaceOnUse" x="558" y="209" width="7" height="7">
<rect x="558.387" y="209.21" width="6.52084" height="6.52084" rx="3.26042" fill="#D9D9D9"/>
</mask>
<g mask="url(#mask3_613_7679)">
<circle cx="561.646" cy="216.528" r="3.47778" fill="#969696"/>
</g>
<circle cx="561.61" cy="224.855" r="5.03554" fill="#D9D9D9"/>
<circle cx="561.611" cy="224.348" r="1.12303" fill="#969696"/>
<mask id="mask4_613_7679" style="mask-type:alpha" maskUnits="userSpaceOnUse" x="558" y="221" width="7" height="8">
<rect x="558.387" y="221.631" width="6.52084" height="6.52084" rx="3.26042" fill="#D9D9D9"/>
</mask>
<g mask="url(#mask4_613_7679)">
<circle cx="561.646" cy="228.949" r="3.47778" fill="#969696"/>
</g>
<circle cx="561.61" cy="237.109" r="5.03554" fill="#D9D9D9"/>
<circle cx="561.611" cy="236.601" r="1.12303" fill="#969696"/>
<mask id="mask5_613_7679" style="mask-type:alpha" maskUnits="userSpaceOnUse" x="558" y="233" width="7" height="8">
<rect x="558.387" y="233.884" width="6.52084" height="6.52084" rx="3.26042" fill="#D9D9D9"/>
</mask>
<g mask="url(#mask5_613_7679)">
<circle cx="561.646" cy="241.202" r="3.47778" fill="#969696"/>
</g>
<circle cx="542.02" cy="233.8" r="7.62529" fill="#D9D9D9"/>
<circle cx="542.021" cy="233.032" r="1.7006" fill="#969696"/>
<mask id="mask6_613_7679" style="mask-type:alpha" maskUnits="userSpaceOnUse" x="537" y="228" width="11" height="11">
<rect x="537.137" y="228.917" width="9.87448" height="9.87448" rx="4.93724" fill="#D9D9D9"/>
</mask>
<g mask="url(#mask6_613_7679)">
<circle cx="542.075" cy="239.999" r="5.26639" fill="#969696"/>
</g>
<rect x="519.312" y="223.681" width="9.90322" height="1.17496" rx="0.587479" fill="#A7A5A5"/>
<rect x="537.105" y="223.681" width="9.90322" height="1.17496" rx="0.587479" fill="#A7A5A5"/>
<rect x="569.5" y="207.399" width="9.90322" height="1.17496" rx="0.587479" fill="#A7A5A5"/>
<rect x="569.5" y="209.917" width="6.5462" height="1.17496" rx="0.587479" fill="#A7A5A5"/>
<rect x="577.891" y="213.442" width="6.5462" height="1.17496" rx="0.587479" fill="#A7A5A5"/>
<rect x="575.207" y="215.792" width="9.23182" height="1.17496" rx="0.587479" fill="#A7A5A5"/>
<rect x="572.352" y="218.309" width="12.0853" height="1.17496" rx="0.587479" fill="#A7A5A5"/>
<rect x="568.355" y="238.71" width="17.6591" height="4.81611" fill="black"/>
<path d="M582.259 240.277L583.775 241.14L582.269 242.021L582.259 240.277Z" stroke="white" stroke-width="0.503554"/>
</g>
<defs>
<filter id="filter0_f_613_7679" x="119.813" y="220.698" width="564.375" height="92.1612" filterUnits="userSpaceOnUse" color-interpolation-filters="sRGB">
<feFlood flood-opacity="0" result="BackgroundImageFix"/>
<feBlend mode="normal" in="SourceGraphic" in2="BackgroundImageFix" result="shape"/>
<feGaussianBlur stdDeviation="17.7812" result="effect1_foregroundBlur_613_7679"/>
</filter>
<filter id="filter1_f_613_7679" x="312.641" y="111.641" width="169.19" height="124.177" filterUnits="userSpaceOnUse" color-interpolation-filters="sRGB">
<feFlood flood-opacity="0" result="BackgroundImageFix"/>
<feBlend mode="normal" in="SourceGraphic" in2="BackgroundImageFix" result="shape"/>
<feGaussianBlur stdDeviation="13.1384" result="effect1_foregroundBlur_613_7679"/>
</filter>
<clipPath id="clip0_613_7679">
<rect x="325.145" y="136.769" width="140.47" height="84.6833" rx="2.85116" fill="white"/>
</clipPath>
<clipPath id="clip1_613_7679">
<rect x="213.57" y="200.182" width="72.2417" height="43.7463" rx="1.10208" fill="white"/>
</clipPath>
<clipPath id="clip2_613_7679">
<rect x="513.773" y="200.182" width="72.2417" height="43.345" rx="0.802685" fill="white"/>
</clipPath>
</defs>
</svg>
